G04 ================== begin FILE IDENTIFICATION RECORD ==================*
G04 Layout Name:  C:/Users/kjwoo_/Desktop/project/ARTWORK_haenyeo1/HAENYEO1.brd*
G04 Film Name:    Drill_Draw*
G04 File Format:  Gerber RS274X*
G04 File Origin:  Cadence Allegro 17.2-S007*
G04 Origin Date:  Sun Jan 12 23:29:10 2020*
G04 *
G04 Layer:  MANUFACTURING/NCLEGEND-1-2*
G04 Layer:  BOARD GEOMETRY/OUTLINE*
G04 Layer:  BOARD GEOMETRY/DIMENSION*
G04 *
G04 Offset:    (0.0000 0.0000)*
G04 Mirror:    No*
G04 Mode:      Positive*
G04 Rotation:  0*
G04 FullContactRelief:  No*
G04 UndefLineWidth:     0.2000*
G04 ================== end FILE IDENTIFICATION RECORD ====================*
%FSLAX55Y55*MOMM*%
%IR0*IPPOS*OFA0.00000B0.00000*MIA0B0*SFA1.00000B1.00000*%
%AMMACRO12*
1,1,.2,.1651,0.0*
20,1,.2,.1651,0.0,-.1651,0.0,0.0*
1,1,.2,-.1651,0.0*
1,1,.2,0.0,.1651*
20,1,.2,0.0,.1651,0.0,-.1651,0.0*
1,1,.2,0.0,-.1651*
%
%ADD12MACRO12*%
%AMMACRO13*
1,1,.2,.4064,.4064*
20,1,.2,.4064,.4064,.4064,-.4064,0.0*
1,1,.2,.4064,-.4064*
20,1,.2,.4064,-.4064,-.4064,-.4064,0.0*
1,1,.2,-.4064,-.4064*
20,1,.2,-.4064,-.4064,-.4064,.4064,0.0*
1,1,.2,-.4064,.4064*
20,1,.2,-.4064,.4064,.4064,.4064,0.0*
1,1,.2,.4064,.4064*
%
%ADD13MACRO13*%
%AMMACRO11*
1,1,.2,0.0,1.143*
20,1,.2,0.0,1.143,-.989867,.5715,0.0*
1,1,.2,-.989867,.5715*
20,1,.2,-.989867,.5715,-.989867,-.5715,0.0*
1,1,.2,-.989867,-.5715*
20,1,.2,-.989867,-.5715,0.0,-1.143,0.0*
1,1,.2,0.0,-1.143*
20,1,.2,0.0,-1.143,.989867,-.5715,0.0*
1,1,.2,.989867,-.5715*
20,1,.2,.989867,-.5715,.989867,.5715,0.0*
1,1,.2,.989867,.5715*
20,1,.2,.989867,.5715,0.0,1.143,0.0*
1,1,.2,0.0,1.143*
%
%ADD11MACRO11*%
%AMMACRO10*
1,1,.2,.4572,0.0*
20,1,.2,.4572,0.0,.2286,.395947,0.0*
1,1,.2,.2286,.395947*
20,1,.2,.2286,.395947,-.2286,.395947,0.0*
1,1,.2,-.2286,.395947*
20,1,.2,-.2286,.395947,-.4572,0.0,0.0*
1,1,.2,-.4572,0.0*
20,1,.2,-.4572,0.0,-.2286,-.395947,0.0*
1,1,.2,-.2286,-.395947*
20,1,.2,-.2286,-.395947,.2286,-.395947,0.0*
1,1,.2,.2286,-.395947*
20,1,.2,.2286,-.395947,.4572,0.0,0.0*
1,1,.2,.4572,0.0*
%
%ADD10MACRO10*%
%ADD14C,.2*%
G75*
%LPD*%
G75*
G54D10*
X18038000Y28321000D03*
X18288000D03*
X18927000D03*
X19177000D03*
X25208230Y28433000D03*
G54D11*
X18034000Y29210000D03*
X18974000D03*
X18504000D03*
X25208230Y27798000D03*
G54D12*
X18836640Y30393640D03*
X19367500Y28829000D03*
X19685000Y29527500D03*
X19431000D03*
X19685000Y30670500D03*
X20025360Y28280360D03*
X20002500Y29373500D03*
X21387990Y28956000D03*
X21399500Y28003500D03*
X21487990Y28956000D03*
X21717000Y30121860D03*
X22011640Y30947360D03*
X25208230Y29703000D03*
G54D13*
X20129500Y28638500D03*
X20383500D03*
X20193000Y30353000D03*
Y31115000D03*
Y30861000D03*
Y30607000D03*
X22225000Y29654500D03*
Y29400500D03*
Y29146500D03*
X25208230Y29068000D03*
G54D14*
G01X17500000Y31700000D02*
Y27700000D01*
X22600000D01*
Y31700000D01*
X17500000D01*
G01X24066500Y27480500D02*
Y31940500D01*
X36664900D01*
Y27480500D01*
X24066500D01*
G01Y28115500D02*
X36664900D01*
G01X24066500Y28750500D02*
X36664900D01*
G01X24066500Y29385500D02*
X36664900D01*
G01X24346020Y30179250D02*
Y30496750D01*
X24495640D01*
G01X24440510Y30343300D02*
X24346020D01*
G01X24688550Y30496750D02*
X24783030D01*
G01X24735790D02*
Y30179250D01*
G01X24688550D02*
X24783030D01*
G01X25074370Y30338000D02*
X25153120D01*
Y30242750D01*
X25129490Y30210990D01*
X25101930Y30189830D01*
X25062560Y30179250D01*
X25023190Y30189830D01*
X24995630Y30210990D01*
X24972010Y30242750D01*
X24956260Y30279790D01*
X24948380Y30322120D01*
Y30359170D01*
X24956260Y30390910D01*
X24972010Y30427960D01*
X24995630Y30459710D01*
X25019250Y30480870D01*
X25050750Y30496750D01*
X25078310D01*
X25109800Y30486170D01*
X25133430Y30465000D01*
G01X25279100Y30496750D02*
Y30269210D01*
X25294840Y30221570D01*
X25326340Y30189830D01*
X25365710Y30179250D01*
X25405080Y30189830D01*
X25436580Y30221570D01*
X25452320Y30269210D01*
Y30496750D01*
G01X25601930Y30179250D02*
Y30496750D01*
X25700350D01*
X25731850Y30480870D01*
X25751540Y30459710D01*
X25759410Y30417370D01*
X25751540Y30375040D01*
X25727910Y30348590D01*
X25700350Y30332700D01*
X25601930D01*
G01X25700350D02*
X25759410Y30179250D01*
G01X26074370D02*
X25916890D01*
Y30496750D01*
X26074370D01*
G01X26011380Y30343300D02*
X25916890D01*
G01X24066500Y30020500D02*
X36664900D01*
G01X24066500Y30655500D02*
X36664900D01*
G01X24066500Y31290500D02*
X36664900D01*
G01X26349960Y30655500D02*
Y27480500D01*
G01X26015310Y30814250D02*
X26113740Y31131750D01*
X26212170Y30814250D01*
G01X26176730Y30925370D02*
X26050740D01*
G01X26349960Y31131750D02*
Y30814250D01*
X26507440D01*
G01X26664920Y31131750D02*
Y30814250D01*
X26822400D01*
G01X27286970Y31131750D02*
Y30904210D01*
X27302710Y30856570D01*
X27334210Y30824830D01*
X27373580Y30814250D01*
X27412950Y30824830D01*
X27444450Y30856570D01*
X27460190Y30904210D01*
Y31131750D01*
G01X27597990Y30814250D02*
Y31131750D01*
X27779090Y30814250D01*
Y31131750D01*
G01X27956260D02*
X28050740D01*
G01X28003500D02*
Y30814250D01*
G01X27956260D02*
X28050740D01*
G01X28318460Y31131750D02*
Y30814250D01*
G01X28227910Y31131750D02*
X28409010D01*
G01X28550740Y30856570D02*
X28582240Y30830120D01*
X28617670Y30814250D01*
X28649170D01*
X28680660Y30830120D01*
X28704290Y30856570D01*
X28716100Y30893630D01*
X28708230Y30930660D01*
X28688540Y30962410D01*
X28653100Y30983590D01*
X28605860Y30994170D01*
X28578300Y31015330D01*
X28566490Y31052370D01*
X28574370Y31089420D01*
X28594050Y31115870D01*
X28621610Y31131750D01*
X28649170D01*
X28676730Y31121170D01*
X28700350Y31094710D01*
G01X29164910Y30814250D02*
X29263340Y31131750D01*
X29361770Y30814250D01*
G01X29326330Y30925370D02*
X29200340D01*
G01X29499560Y30814250D02*
Y31131750D01*
X29597980D01*
X29629480Y31115870D01*
X29649170Y31094710D01*
X29657040Y31052370D01*
X29649170Y31010040D01*
X29625540Y30983590D01*
X29597980Y30967700D01*
X29499560D01*
G01X29597980D02*
X29657040Y30814250D01*
G01X29972000D02*
X29814520D01*
Y31131750D01*
X29972000D01*
G01X29909010Y30978300D02*
X29814520D01*
G01X30475940Y31131750D02*
X30570420D01*
G01X30523180D02*
Y30814250D01*
G01X30475940D02*
X30570420D01*
G01X30747590D02*
Y31131750D01*
X30928690Y30814250D01*
Y31131750D01*
G01X31365690Y30814250D02*
Y31131750D01*
X31468060Y30867170D01*
X31570430Y31131750D01*
Y30814250D01*
G01X31735780Y31131750D02*
X31830260D01*
G01X31783020D02*
Y30814250D01*
G01X31735780D02*
X31830260D01*
G01X32019240Y31131750D02*
Y30814250D01*
X32176720D01*
G01X32334200Y31131750D02*
Y30814250D01*
X32491680D01*
G01X32680660Y31131750D02*
X32775140D01*
G01X32727900D02*
Y30814250D01*
G01X32680660D02*
X32775140D01*
G01X32940490D02*
Y31131750D01*
X33042860Y30867170D01*
X33145230Y31131750D01*
Y30814250D01*
G01X33436560D02*
X33279080D01*
Y31131750D01*
X33436560D01*
G01X33373570Y30978300D02*
X33279080D01*
G01X33672780Y31131750D02*
Y30814250D01*
G01X33582230Y31131750D02*
X33763330D01*
G01X34066480Y30814250D02*
X33909000D01*
Y31131750D01*
X34066480D01*
G01X34003490Y30978300D02*
X33909000D01*
G01X34223960Y30814250D02*
Y31131750D01*
X34322380D01*
X34353880Y31115870D01*
X34373570Y31094710D01*
X34381440Y31052370D01*
X34373570Y31010040D01*
X34349940Y30983590D01*
X34322380Y30967700D01*
X34223960D01*
G01X34322380D02*
X34381440Y30814250D01*
G01X34534980Y30856570D02*
X34566480Y30830120D01*
X34601910Y30814250D01*
X34633410D01*
X34664900Y30830120D01*
X34688530Y30856570D01*
X34700340Y30893630D01*
X34692470Y30930660D01*
X34672780Y30962410D01*
X34637340Y30983590D01*
X34590100Y30994170D01*
X34562540Y31015330D01*
X34550730Y31052370D01*
X34558610Y31089420D01*
X34578290Y31115870D01*
X34605850Y31131750D01*
X34633410D01*
X34660970Y31121170D01*
X34684590Y31094710D01*
G01X26342090Y31464250D02*
Y31781750D01*
X26420820D01*
X26452320Y31765870D01*
X26475940Y31744710D01*
X26495630Y31712960D01*
X26511380Y31675910D01*
X26515310Y31623000D01*
X26511380Y31570080D01*
X26495630Y31533040D01*
X26475940Y31501280D01*
X26452320Y31480120D01*
X26420820Y31464250D01*
X26342090D01*
G01X26664920D02*
Y31781750D01*
X26763340D01*
X26794840Y31765870D01*
X26814530Y31744710D01*
X26822400Y31702370D01*
X26814530Y31660040D01*
X26790900Y31633590D01*
X26763340Y31617700D01*
X26664920D01*
G01X26763340D02*
X26822400Y31464250D01*
G01X27011380Y31781750D02*
X27105860D01*
G01X27058620D02*
Y31464250D01*
G01X27011380D02*
X27105860D01*
G01X27294840Y31781750D02*
Y31464250D01*
X27452320D01*
G01X27609800Y31781750D02*
Y31464250D01*
X27767280D01*
G01X28405070Y31755290D02*
X28381450Y31771170D01*
X28353900Y31781750D01*
X28322400D01*
X28286960Y31765870D01*
X28259410Y31739420D01*
X28239720Y31707660D01*
X28223970Y31654750D01*
X28220030Y31607120D01*
X28227910Y31559500D01*
X28239720Y31527750D01*
X28263340Y31495990D01*
X28290900Y31474830D01*
X28318460Y31464250D01*
X28346020D01*
X28373580Y31474830D01*
X28397200Y31490700D01*
X28416890Y31511860D01*
G01X28550740Y31464250D02*
Y31781750D01*
G01X28716100D02*
Y31464250D01*
G01Y31623000D02*
X28550740D01*
G01X28849950Y31464250D02*
X28948380Y31781750D01*
X29046810Y31464250D01*
G01X29011370Y31575370D02*
X28885380D01*
G01X29184600Y31464250D02*
Y31781750D01*
X29283020D01*
X29314520Y31765870D01*
X29334210Y31744710D01*
X29342080Y31702370D01*
X29334210Y31660040D01*
X29310580Y31633590D01*
X29283020Y31617700D01*
X29184600D01*
G01X29283020D02*
X29342080Y31464250D01*
G01X29578300Y31781750D02*
Y31464250D01*
G01X29487750Y31781750D02*
X29668850D01*
G01X29893260Y31453670D02*
X29885380Y31458960D01*
Y31469540D01*
X29893260Y31474830D01*
X29901140Y31469540D01*
Y31458960D01*
X29893260Y31453670D01*
G01Y31596530D02*
X29885380Y31601830D01*
Y31612410D01*
X29893260Y31617700D01*
X29901140Y31612410D01*
Y31601830D01*
X29893260Y31596530D01*
G01X30523180Y31781750D02*
Y31464250D01*
G01X30432630Y31781750D02*
X30613730D01*
G01X30838140Y31464250D02*
X30806640Y31469540D01*
X30779090Y31490700D01*
X30755460Y31522460D01*
X30739710Y31559500D01*
X30731840Y31601830D01*
Y31644170D01*
X30739710Y31686500D01*
X30755460Y31723540D01*
X30779090Y31755290D01*
X30806640Y31776460D01*
X30838140Y31781750D01*
X30869630Y31776460D01*
X30897190Y31755290D01*
X30920820Y31723540D01*
X30936570Y31686500D01*
X30944440Y31644170D01*
Y31601830D01*
X30936570Y31559500D01*
X30920820Y31522460D01*
X30897190Y31490700D01*
X30869630Y31469540D01*
X30838140Y31464250D01*
G01X31074360D02*
Y31781750D01*
X31168850D01*
X31200340Y31765870D01*
X31223970Y31728830D01*
X31231840Y31686500D01*
X31223970Y31644170D01*
X31204280Y31612410D01*
X31168850Y31596530D01*
X31074360D01*
G01X31783020Y31781750D02*
Y31464250D01*
G01X31727900Y31675910D02*
X31838140D01*
G01X32097980Y31464250D02*
X32074360Y31469540D01*
X32050740Y31490700D01*
X32034980Y31527750D01*
X32027110Y31570080D01*
X32034980Y31612410D01*
X32050740Y31649460D01*
X32074360Y31670620D01*
X32097980Y31675910D01*
X32121600Y31670620D01*
X32145220Y31649460D01*
X32160970Y31612410D01*
X32164910Y31570080D01*
X32160970Y31527750D01*
X32145220Y31490700D01*
X32121600Y31469540D01*
X32097980Y31464250D01*
G01X32759390Y31633590D02*
X32775140Y31649460D01*
X32786950Y31675910D01*
X32794830Y31712960D01*
X32786950Y31744710D01*
X32771210Y31765870D01*
X32743650Y31781750D01*
X32637350D01*
Y31464250D01*
X32767270D01*
X32794830Y31485410D01*
X32810580Y31517170D01*
X32818450Y31554210D01*
X32810580Y31591240D01*
X32786950Y31623000D01*
X32759390Y31633590D01*
X32637350D01*
G01X33042860Y31464250D02*
X33011360Y31469540D01*
X32983810Y31490700D01*
X32960180Y31522460D01*
X32944430Y31559500D01*
X32936560Y31601830D01*
Y31644170D01*
X32944430Y31686500D01*
X32960180Y31723540D01*
X32983810Y31755290D01*
X33011360Y31776460D01*
X33042860Y31781750D01*
X33074350Y31776460D01*
X33101910Y31755290D01*
X33125540Y31723540D01*
X33141290Y31686500D01*
X33149160Y31644170D01*
Y31601830D01*
X33141290Y31559500D01*
X33125540Y31522460D01*
X33101910Y31490700D01*
X33074350Y31469540D01*
X33042860Y31464250D01*
G01X33357820Y31781750D02*
Y31464250D01*
G01X33267270Y31781750D02*
X33448370D01*
G01X33672780D02*
Y31464250D01*
G01X33582230Y31781750D02*
X33763330D01*
G01X33987740Y31464250D02*
X33956240Y31469540D01*
X33928690Y31490700D01*
X33905060Y31522460D01*
X33889310Y31559500D01*
X33881440Y31601830D01*
Y31644170D01*
X33889310Y31686500D01*
X33905060Y31723540D01*
X33928690Y31755290D01*
X33956240Y31776460D01*
X33987740Y31781750D01*
X34019230Y31776460D01*
X34046790Y31755290D01*
X34070420Y31723540D01*
X34086170Y31686500D01*
X34094040Y31644170D01*
Y31601830D01*
X34086170Y31559500D01*
X34070420Y31522460D01*
X34046790Y31490700D01*
X34019230Y31469540D01*
X33987740Y31464250D01*
G01X34200330D02*
Y31781750D01*
X34302700Y31517170D01*
X34405070Y31781750D01*
Y31464250D01*
G01X26944440Y30179250D02*
Y30496750D01*
X27094060D01*
G01X27038930Y30343300D02*
X26944440D01*
G01X27286970Y30496750D02*
X27381450D01*
G01X27334210D02*
Y30179250D01*
G01X27286970D02*
X27381450D01*
G01X27558620D02*
Y30496750D01*
X27739720Y30179250D01*
Y30496750D01*
G01X27916890D02*
X28011370D01*
G01X27964130D02*
Y30179250D01*
G01X27916890D02*
X28011370D01*
G01X28196410Y30221570D02*
X28227910Y30195120D01*
X28263340Y30179250D01*
X28294840D01*
X28326330Y30195120D01*
X28349960Y30221570D01*
X28361770Y30258630D01*
X28353900Y30295660D01*
X28334210Y30327410D01*
X28298770Y30348590D01*
X28251530Y30359170D01*
X28223970Y30380330D01*
X28212160Y30417370D01*
X28220040Y30454420D01*
X28239720Y30480870D01*
X28267280Y30496750D01*
X28294840D01*
X28322400Y30486170D01*
X28346020Y30459710D01*
G01X28511370Y30179250D02*
Y30496750D01*
G01X28676730D02*
Y30179250D01*
G01Y30338000D02*
X28511370D01*
G01X28987750Y30179250D02*
X28830270D01*
Y30496750D01*
X28987750D01*
G01X28924760Y30343300D02*
X28830270D01*
G01X29137360Y30179250D02*
Y30496750D01*
X29216090D01*
X29247590Y30480870D01*
X29271210Y30459710D01*
X29290900Y30427960D01*
X29306650Y30390910D01*
X29310580Y30338000D01*
X29306650Y30285080D01*
X29290900Y30248040D01*
X29271210Y30216280D01*
X29247590Y30195120D01*
X29216090Y30179250D01*
X29137360D01*
G01X29420820Y30073420D02*
X29657040D01*
G01X29771210Y30221570D02*
X29802710Y30195120D01*
X29838140Y30179250D01*
X29869640D01*
X29901130Y30195120D01*
X29924760Y30221570D01*
X29936570Y30258630D01*
X29928700Y30295660D01*
X29909010Y30327410D01*
X29873570Y30348590D01*
X29826330Y30359170D01*
X29798770Y30380330D01*
X29786960Y30417370D01*
X29794840Y30454420D01*
X29814520Y30480870D01*
X29842080Y30496750D01*
X29869640D01*
X29897200Y30486170D01*
X29920820Y30459710D01*
G01X30121610Y30496750D02*
X30216090D01*
G01X30168850D02*
Y30179250D01*
G01X30121610D02*
X30216090D01*
G01X30409000Y30496750D02*
X30558620D01*
X30409000Y30179250D01*
X30558620D01*
G01X30877510D02*
X30720030D01*
Y30496750D01*
X30877510D01*
G01X30814520Y30343300D02*
X30720030D01*
G01X28121610Y28591750D02*
X28090110Y28581170D01*
X28066490Y28554710D01*
X28050740Y28522960D01*
X28038930Y28480620D01*
X28035000Y28433000D01*
X28038930Y28385370D01*
X28050740Y28343040D01*
X28066490Y28311280D01*
X28090110Y28284830D01*
X28121610Y28274250D01*
X28153100Y28284830D01*
X28176730Y28311280D01*
X28192480Y28343040D01*
X28204290Y28385370D01*
X28208220Y28433000D01*
X28204290Y28480620D01*
X28192480Y28522960D01*
X28176730Y28554710D01*
X28153100Y28581170D01*
X28121610Y28591750D01*
G01X28436570Y28263670D02*
X28428690Y28268960D01*
Y28279540D01*
X28436570Y28284830D01*
X28444450Y28279540D01*
Y28268960D01*
X28436570Y28263670D01*
G01X28684600Y28311280D02*
X28712160Y28284830D01*
X28743650Y28274250D01*
X28775150Y28284830D01*
X28802710Y28316570D01*
X28822400Y28364210D01*
X28830270Y28411830D01*
Y28470040D01*
X28822400Y28517660D01*
X28802710Y28560000D01*
X28779090Y28581170D01*
X28751530Y28591750D01*
X28720030Y28581170D01*
X28696410Y28560000D01*
X28680660Y28528250D01*
X28672790Y28485910D01*
X28680660Y28448880D01*
X28700350Y28411830D01*
X28723970Y28390660D01*
X28751530Y28385370D01*
X28783020Y28395950D01*
X28806650Y28422410D01*
X28830270Y28470040D01*
G01X29066490Y28274250D02*
Y28591750D01*
X29019250Y28528250D01*
G01Y28274250D02*
X29113730D01*
G01X29428690D02*
Y28591750D01*
X29283020Y28364210D01*
X29479880D01*
G01X29743650Y28274250D02*
Y28591750D01*
X29597980Y28364210D01*
X29794840D01*
G01X28204280Y27903830D02*
X28227910Y27935580D01*
X28255470Y27951460D01*
X28286970Y27956750D01*
X28326330Y27946170D01*
X28353900Y27919710D01*
X28361770Y27887960D01*
X28357830Y27856200D01*
X28342080Y27829750D01*
X28263340Y27776830D01*
X28227910Y27739790D01*
X28204280Y27686860D01*
X28196410Y27639250D01*
X28361770D01*
G01X28594050Y27628670D02*
X28586170Y27633960D01*
Y27644540D01*
X28594050Y27649830D01*
X28601930Y27644540D01*
Y27633960D01*
X28594050Y27628670D01*
G01X28834200Y27903830D02*
X28857830Y27935580D01*
X28885390Y27951460D01*
X28916890Y27956750D01*
X28956250Y27946170D01*
X28983820Y27919710D01*
X28991690Y27887960D01*
X28987750Y27856200D01*
X28972000Y27829750D01*
X28893260Y27776830D01*
X28857830Y27739790D01*
X28834200Y27686860D01*
X28826330Y27639250D01*
X28991690D01*
G01X29223970D02*
X29251530Y27644540D01*
X29283020Y27660410D01*
X29302710Y27686860D01*
X29310580Y27723920D01*
X29302710Y27760950D01*
X29279090Y27792700D01*
X29243650Y27808590D01*
X29204290D01*
X29180660Y27819170D01*
X29160970Y27845620D01*
X29153100Y27882660D01*
X29164920Y27919710D01*
X29192470Y27946170D01*
X29223970Y27956750D01*
X29255460Y27946170D01*
X29283020Y27919710D01*
X29294840Y27882660D01*
X29286960Y27845620D01*
X29267280Y27819170D01*
X29243650Y27808590D01*
X29204290D01*
X29168850Y27792700D01*
X29145230Y27760950D01*
X29137360Y27723920D01*
X29145230Y27686860D01*
X29164920Y27660410D01*
X29196410Y27644540D01*
X29223970Y27639250D01*
G01X29464120Y27771530D02*
X29491690Y27808590D01*
X29515310Y27829750D01*
X29546810Y27840330D01*
X29574370Y27829750D01*
X29594050Y27808590D01*
X29609800Y27776830D01*
X29613740Y27739790D01*
X29609800Y27708040D01*
X29594050Y27676280D01*
X29570420Y27649830D01*
X29542870Y27639250D01*
X29511370Y27649830D01*
X29483810Y27681570D01*
X29468060Y27729210D01*
X29464120Y27782120D01*
X29472000Y27850910D01*
X29483810Y27887960D01*
X29503490Y27925000D01*
X29531050Y27951460D01*
X29558610Y27956750D01*
X29586170Y27946170D01*
X29605860Y27919710D01*
G01X28121610Y29226750D02*
X28090110Y29216170D01*
X28066490Y29189710D01*
X28050740Y29157960D01*
X28038930Y29115620D01*
X28035000Y29068000D01*
X28038930Y29020370D01*
X28050740Y28978040D01*
X28066490Y28946280D01*
X28090110Y28919830D01*
X28121610Y28909250D01*
X28153100Y28919830D01*
X28176730Y28946280D01*
X28192480Y28978040D01*
X28204290Y29020370D01*
X28208220Y29068000D01*
X28204290Y29115620D01*
X28192480Y29157960D01*
X28176730Y29189710D01*
X28153100Y29216170D01*
X28121610Y29226750D01*
G01X28436570Y28898670D02*
X28428690Y28903960D01*
Y28914540D01*
X28436570Y28919830D01*
X28444450Y28914540D01*
Y28903960D01*
X28436570Y28898670D01*
G01X28751530Y28909250D02*
X28779090Y28914540D01*
X28810580Y28930410D01*
X28830270Y28956860D01*
X28838140Y28993920D01*
X28830270Y29030950D01*
X28806650Y29062700D01*
X28771210Y29078590D01*
X28731850D01*
X28708220Y29089170D01*
X28688530Y29115620D01*
X28680660Y29152660D01*
X28692480Y29189710D01*
X28720030Y29216170D01*
X28751530Y29226750D01*
X28783020Y29216170D01*
X28810580Y29189710D01*
X28822400Y29152660D01*
X28814520Y29115620D01*
X28794840Y29089170D01*
X28771210Y29078590D01*
X28731850D01*
X28696410Y29062700D01*
X28672790Y29030950D01*
X28664920Y28993920D01*
X28672790Y28956860D01*
X28692480Y28930410D01*
X28723970Y28914540D01*
X28751530Y28909250D01*
G01X29066490D02*
Y29226750D01*
X29019250Y29163250D01*
G01Y28909250D02*
X29113730D01*
G01X29306640Y29173830D02*
X29330270Y29205580D01*
X29357830Y29221460D01*
X29389330Y29226750D01*
X29428690Y29216170D01*
X29456260Y29189710D01*
X29464130Y29157960D01*
X29460190Y29126200D01*
X29444440Y29099750D01*
X29365700Y29046830D01*
X29330270Y29009790D01*
X29306640Y28956860D01*
X29298770Y28909250D01*
X29464130D01*
G01X29696410D02*
X29723970Y28914540D01*
X29755460Y28930410D01*
X29775150Y28956860D01*
X29783020Y28993920D01*
X29775150Y29030950D01*
X29751530Y29062700D01*
X29716090Y29078590D01*
X29676730D01*
X29653100Y29089170D01*
X29633410Y29115620D01*
X29625540Y29152660D01*
X29637360Y29189710D01*
X29664910Y29216170D01*
X29696410Y29226750D01*
X29727900Y29216170D01*
X29755460Y29189710D01*
X29767280Y29152660D01*
X29759400Y29115620D01*
X29739720Y29089170D01*
X29716090Y29078590D01*
X29676730D01*
X29641290Y29062700D01*
X29617670Y29030950D01*
X29609800Y28993920D01*
X29617670Y28956860D01*
X29637360Y28930410D01*
X29668850Y28914540D01*
X29696410Y28909250D01*
G01X28121610Y29861750D02*
X28090110Y29851170D01*
X28066490Y29824710D01*
X28050740Y29792960D01*
X28038930Y29750620D01*
X28035000Y29703000D01*
X28038930Y29655370D01*
X28050740Y29613040D01*
X28066490Y29581280D01*
X28090110Y29554830D01*
X28121610Y29544250D01*
X28153100Y29554830D01*
X28176730Y29581280D01*
X28192480Y29613040D01*
X28204290Y29655370D01*
X28208220Y29703000D01*
X28204290Y29750620D01*
X28192480Y29792960D01*
X28176730Y29824710D01*
X28153100Y29851170D01*
X28121610Y29861750D01*
G01X28436570Y29533670D02*
X28428690Y29538960D01*
Y29549540D01*
X28436570Y29554830D01*
X28444450Y29549540D01*
Y29538960D01*
X28436570Y29533670D01*
G01X28664920Y29607750D02*
X28688530Y29570700D01*
X28720030Y29549540D01*
X28755470Y29544250D01*
X28786970Y29549540D01*
X28818460Y29575990D01*
X28838140Y29607750D01*
X28842080Y29639500D01*
X28834210Y29676530D01*
X28806650Y29703000D01*
X28779090Y29713590D01*
X28743650D01*
G01X28779090D02*
X28802710Y29729460D01*
X28822400Y29755910D01*
X28830270Y29787660D01*
X28822400Y29819420D01*
X28802710Y29845870D01*
X28767280Y29861750D01*
X28731850Y29856460D01*
X28696410Y29835290D01*
G01X28979880Y29607750D02*
X29003490Y29570700D01*
X29034990Y29549540D01*
X29070430Y29544250D01*
X29101930Y29549540D01*
X29133420Y29575990D01*
X29153100Y29607750D01*
X29157040Y29639500D01*
X29149170Y29676530D01*
X29121610Y29703000D01*
X29094050Y29713590D01*
X29058610D01*
G01X29094050D02*
X29117670Y29729460D01*
X29137360Y29755910D01*
X29145230Y29787660D01*
X29137360Y29819420D01*
X29117670Y29845870D01*
X29082240Y29861750D01*
X29046810Y29856460D01*
X29011370Y29835290D01*
G01X29381450Y29861750D02*
X29349950Y29851170D01*
X29326330Y29824710D01*
X29310580Y29792960D01*
X29298770Y29750620D01*
X29294840Y29703000D01*
X29298770Y29655370D01*
X29310580Y29613040D01*
X29326330Y29581280D01*
X29349950Y29554830D01*
X29381450Y29544250D01*
X29412940Y29554830D01*
X29436570Y29581280D01*
X29452320Y29613040D01*
X29464130Y29655370D01*
X29468060Y29703000D01*
X29464130Y29750620D01*
X29452320Y29792960D01*
X29436570Y29824710D01*
X29412940Y29851170D01*
X29381450Y29861750D01*
G01X29621600Y29808830D02*
X29645230Y29840580D01*
X29672790Y29856460D01*
X29704290Y29861750D01*
X29743650Y29851170D01*
X29771220Y29824710D01*
X29779090Y29792960D01*
X29775150Y29761200D01*
X29759400Y29734750D01*
X29680660Y29681830D01*
X29645230Y29644790D01*
X29621600Y29591860D01*
X29613730Y29544250D01*
X29779090D01*
G01X31468060Y30655500D02*
Y27480500D01*
G01X32216090Y28274250D02*
Y28591750D01*
X32310580D01*
X32342070Y28575870D01*
X32365700Y28538830D01*
X32373570Y28496500D01*
X32365700Y28454170D01*
X32346010Y28422410D01*
X32310580Y28406530D01*
X32216090D01*
G01X32531050Y28591750D02*
Y28274250D01*
X32688530D01*
G01X32826320D02*
X32924750Y28591750D01*
X33023180Y28274250D01*
G01X32987740Y28385370D02*
X32861750D01*
G01X33239710Y28591750D02*
Y28274250D01*
G01X33149160Y28591750D02*
X33330260D01*
G01X33633410Y28274250D02*
X33475930D01*
Y28591750D01*
X33633410D01*
G01X33570420Y28438300D02*
X33475930D01*
G01X33783020Y28274250D02*
Y28591750D01*
X33861750D01*
X33893250Y28575870D01*
X33916870Y28554710D01*
X33936560Y28522960D01*
X33952310Y28485910D01*
X33956240Y28433000D01*
X33952310Y28380080D01*
X33936560Y28343040D01*
X33916870Y28311280D01*
X33893250Y28290120D01*
X33861750Y28274250D01*
X33783020D01*
G01X32216090Y27639250D02*
Y27956750D01*
X32310580D01*
X32342070Y27940870D01*
X32365700Y27903830D01*
X32373570Y27861500D01*
X32365700Y27819170D01*
X32346010Y27787410D01*
X32310580Y27771530D01*
X32216090D01*
G01X32531050Y27956750D02*
Y27639250D01*
X32688530D01*
G01X32826320D02*
X32924750Y27956750D01*
X33023180Y27639250D01*
G01X32987740Y27750370D02*
X32861750D01*
G01X33239710Y27956750D02*
Y27639250D01*
G01X33149160Y27956750D02*
X33330260D01*
G01X33633410Y27639250D02*
X33475930D01*
Y27956750D01*
X33633410D01*
G01X33570420Y27803300D02*
X33475930D01*
G01X33783020Y27639250D02*
Y27956750D01*
X33861750D01*
X33893250Y27940870D01*
X33916870Y27919710D01*
X33936560Y27887960D01*
X33952310Y27850910D01*
X33956240Y27798000D01*
X33952310Y27745080D01*
X33936560Y27708040D01*
X33916870Y27676280D01*
X33893250Y27655120D01*
X33861750Y27639250D01*
X33783020D01*
G01X32216090Y28909250D02*
Y29226750D01*
X32310580D01*
X32342070Y29210870D01*
X32365700Y29173830D01*
X32373570Y29131500D01*
X32365700Y29089170D01*
X32346010Y29057410D01*
X32310580Y29041530D01*
X32216090D01*
G01X32531050Y29226750D02*
Y28909250D01*
X32688530D01*
G01X32826320D02*
X32924750Y29226750D01*
X33023180Y28909250D01*
G01X32987740Y29020370D02*
X32861750D01*
G01X33239710Y29226750D02*
Y28909250D01*
G01X33149160Y29226750D02*
X33330260D01*
G01X33633410Y28909250D02*
X33475930D01*
Y29226750D01*
X33633410D01*
G01X33570420Y29073300D02*
X33475930D01*
G01X33783020Y28909250D02*
Y29226750D01*
X33861750D01*
X33893250Y29210870D01*
X33916870Y29189710D01*
X33936560Y29157960D01*
X33952310Y29120910D01*
X33956240Y29068000D01*
X33952310Y29015080D01*
X33936560Y28978040D01*
X33916870Y28946280D01*
X33893250Y28925120D01*
X33861750Y28909250D01*
X33783020D01*
G01X32216090Y29544250D02*
Y29861750D01*
X32310580D01*
X32342070Y29845870D01*
X32365700Y29808830D01*
X32373570Y29766500D01*
X32365700Y29724170D01*
X32346010Y29692410D01*
X32310580Y29676530D01*
X32216090D01*
G01X32531050Y29861750D02*
Y29544250D01*
X32688530D01*
G01X32826320D02*
X32924750Y29861750D01*
X33023180Y29544250D01*
G01X32987740Y29655370D02*
X32861750D01*
G01X33239710Y29861750D02*
Y29544250D01*
G01X33149160Y29861750D02*
X33330260D01*
G01X33633410Y29544250D02*
X33475930D01*
Y29861750D01*
X33633410D01*
G01X33570420Y29708300D02*
X33475930D01*
G01X33783020Y29544250D02*
Y29861750D01*
X33861750D01*
X33893250Y29845870D01*
X33916870Y29824710D01*
X33936560Y29792960D01*
X33952310Y29755910D01*
X33956240Y29703000D01*
X33952310Y29650080D01*
X33936560Y29613040D01*
X33916870Y29581280D01*
X33893250Y29560120D01*
X33861750Y29544250D01*
X33783020D01*
G01X32216090Y30179250D02*
Y30496750D01*
X32310580D01*
X32342070Y30480870D01*
X32365700Y30443830D01*
X32373570Y30401500D01*
X32365700Y30359170D01*
X32346010Y30327410D01*
X32310580Y30311530D01*
X32216090D01*
G01X32531050Y30496750D02*
Y30179250D01*
X32688530D01*
G01X32826320D02*
X32924750Y30496750D01*
X33023180Y30179250D01*
G01X32987740Y30290370D02*
X32861750D01*
G01X33239710Y30496750D02*
Y30179250D01*
G01X33149160Y30496750D02*
X33330260D01*
G01X33633410Y30179250D02*
X33475930D01*
Y30496750D01*
X33633410D01*
G01X33570420Y30343300D02*
X33475930D01*
G01X33783020Y30179250D02*
Y30496750D01*
X33861750D01*
X33893250Y30480870D01*
X33916870Y30459710D01*
X33936560Y30427960D01*
X33952310Y30390910D01*
X33956240Y30338000D01*
X33952310Y30285080D01*
X33936560Y30248040D01*
X33916870Y30216280D01*
X33893250Y30195120D01*
X33861750Y30179250D01*
X33783020D01*
G01X34696400Y30655500D02*
Y27480500D01*
G01X35727890Y28274250D02*
Y28591750D01*
X35582220Y28364210D01*
X35779080D01*
G01X35594040Y27702750D02*
X35617650Y27665700D01*
X35649150Y27644540D01*
X35684590Y27639250D01*
X35716090Y27644540D01*
X35747580Y27670990D01*
X35767260Y27702750D01*
X35771200Y27734500D01*
X35763330Y27771530D01*
X35735770Y27798000D01*
X35708210Y27808590D01*
X35672770D01*
G01X35708210D02*
X35731830Y27824460D01*
X35751520Y27850910D01*
X35759390Y27882660D01*
X35751520Y27914420D01*
X35731830Y27940870D01*
X35696400Y27956750D01*
X35660970Y27951460D01*
X35625530Y27930290D01*
G01X35613720Y28946280D02*
X35641280Y28919830D01*
X35672770Y28909250D01*
X35704270Y28919830D01*
X35731830Y28951570D01*
X35751520Y28999210D01*
X35759390Y29046830D01*
Y29105040D01*
X35751520Y29152660D01*
X35731830Y29195000D01*
X35708210Y29216170D01*
X35680650Y29226750D01*
X35649150Y29216170D01*
X35625530Y29195000D01*
X35609780Y29163250D01*
X35601910Y29120910D01*
X35609780Y29083880D01*
X35629470Y29046830D01*
X35653090Y29025660D01*
X35680650Y29020370D01*
X35712140Y29030950D01*
X35735770Y29057410D01*
X35759390Y29105040D01*
G01X35523170Y29544250D02*
Y29861750D01*
X35475930Y29798250D01*
G01Y29544250D02*
X35570410D01*
G01X35763320Y29808830D02*
X35786950Y29840580D01*
X35814510Y29856460D01*
X35846010Y29861750D01*
X35885370Y29851170D01*
X35912940Y29824710D01*
X35920810Y29792960D01*
X35916870Y29761200D01*
X35901120Y29734750D01*
X35822380Y29681830D01*
X35786950Y29644790D01*
X35763320Y29591860D01*
X35755450Y29544250D01*
X35920810D01*
G01X35365690Y30179250D02*
X35334190Y30184540D01*
X35306640Y30205700D01*
X35283010Y30237460D01*
X35267260Y30274500D01*
X35259390Y30316830D01*
Y30359170D01*
X35267260Y30401500D01*
X35283010Y30438540D01*
X35306640Y30470290D01*
X35334190Y30491460D01*
X35365690Y30496750D01*
X35397180Y30491460D01*
X35424740Y30470290D01*
X35448370Y30438540D01*
X35464120Y30401500D01*
X35471990Y30359170D01*
Y30316830D01*
X35464120Y30274500D01*
X35448370Y30237460D01*
X35424740Y30205700D01*
X35397180Y30184540D01*
X35365690Y30179250D01*
G01X35397180Y30263920D02*
X35444430Y30179250D01*
G01X35680650Y30496750D02*
Y30179250D01*
G01X35590100Y30496750D02*
X35771200D01*
G01X35995610Y30179250D02*
Y30322120D01*
X35916870Y30496750D01*
G01X36074350D02*
X35995610Y30322120D01*
M02*
