G04 ================== begin FILE IDENTIFICATION RECORD ==================*
G04 Layout Name:  C:/Users/kjwoo_/Desktop/project/ARTWORK_haenyeo1/HAENYEO1.brd*
G04 Film Name:    Soldermask_Top*
G04 File Format:  Gerber RS274X*
G04 File Origin:  Cadence Allegro 17.2-S007*
G04 Origin Date:  Sat Jan 11 01:52:30 2020*
G04 *
G04 Layer:  VIA CLASS/SOLDERMASK_TOP*
G04 Layer:  PIN/SOLDERMASK_TOP*
G04 *
G04 Offset:    (0.0000 0.0000)*
G04 Mirror:    No*
G04 Mode:      Positive*
G04 Rotation:  0*
G04 FullContactRelief:  No*
G04 UndefLineWidth:     0.0000*
G04 ================== end FILE IDENTIFICATION RECORD ====================*
%FSLAX55Y55*MOMM*%
%IR0*IPPOS*OFA0.00000B0.00000*MIA0B0*SFA1.00000B1.00000*%
%ADD13R,.9398X.9398*%
%ADD20R,.7874X1.27*%
%ADD16R,1.0414X.9398*%
%ADD23R,.9398X1.0414*%
%ADD28R,1.0414X2.413*%
%ADD18R,2.032X1.524*%
%ADD10C,2.032*%
%ADD12C,3.302*%
%ADD27R,1.0414X2.921*%
%ADD21C,1.524*%
%ADD19R,1.651X1.651*%
%ADD15R,1.0414X1.3462*%
%ADD11R,2.032X2.032*%
%ADD17C,1.1176*%
%ADD14R,1.27X1.27*%
%ADD22R,1.524X1.524*%
%ADD24R,5.715X2.159*%
%ADD25R,.9096X.2248*%
%ADD26R,.2248X.9096*%
%LPD*%
G75*
G54D10*
X18038000Y28321000D03*
X18927000D03*
G54D11*
X18288000D03*
X19177000D03*
G54D20*
X19812000Y29714500D03*
X19685000D03*
X19558000D03*
X19431000D03*
Y30229500D03*
X19558000D03*
X19685000D03*
X19812000D03*
G54D21*
X20129500Y28638500D03*
X20193000Y31115000D03*
Y30861000D03*
Y30607000D03*
X22225000Y29654500D03*
Y29400500D03*
G54D12*
X18034000Y29210000D03*
X18974000D03*
X18504000D03*
G54D22*
X20383500Y28638500D03*
X20193000Y30353000D03*
X22225000Y29146500D03*
G54D13*
X17970500Y29706500D03*
Y29856500D03*
X20447000Y28119000D03*
Y28269000D03*
G54D14*
X18224500Y30162500D03*
Y29949140D03*
X17970500Y30924500D03*
X18183860D03*
X19050000Y30226000D03*
X18836640D03*
X18542000Y29781500D03*
Y29994860D03*
X19367500Y29273500D03*
Y29060140D03*
X19685000Y31178500D03*
Y30965140D03*
X20193000Y28067000D03*
Y28280360D03*
X20129500Y29654500D03*
X20342860D03*
X20551140Y30289500D03*
Y29972000D03*
X21186140Y28194000D03*
X20764500Y30289500D03*
Y29972000D03*
X21313140Y30416500D03*
X20764500Y31092140D03*
Y31305500D03*
X21844000Y28194000D03*
X22057360D03*
X21399500D03*
X21526500Y30416500D03*
X22011640D03*
Y30099000D03*
X21463000Y29908500D03*
Y30121860D03*
X22011640Y30734000D03*
X22225000Y30416500D03*
Y30099000D03*
Y30734000D03*
G54D23*
X20256500Y29173500D03*
X20161500Y29373500D03*
X20351500D03*
G54D24*
X21115000Y28638500D03*
X22065000D03*
G54D15*
X18255000Y31178500D03*
X17940000D03*
X20414000Y28956000D03*
X20099000D03*
G54D25*
X21223210Y29225500D03*
Y29275500D03*
Y29325500D03*
Y29375500D03*
Y29425500D03*
Y29475500D03*
Y29525500D03*
Y29575500D03*
X21702790D03*
Y29525500D03*
Y29475500D03*
Y29425500D03*
Y29375500D03*
Y29325500D03*
Y29275500D03*
Y29225500D03*
G54D16*
X18823000Y29750000D03*
X19023000Y29845000D03*
X18823000Y29940000D03*
G54D26*
X21288000Y29640290D03*
X21338000D03*
Y29160710D03*
X21288000D03*
X21388000Y29640290D03*
X21438000D03*
X21488000D03*
X21538000D03*
X21588000D03*
X21638000D03*
Y29160710D03*
X21588000D03*
X21538000D03*
X21488000D03*
X21438000D03*
X21388000D03*
G54D17*
X18836640Y30393640D03*
X19367500Y28829000D03*
X19685000Y29527500D03*
X19431000D03*
X19685000Y30670500D03*
X20025360Y28280360D03*
X20002500Y29373500D03*
X21387990Y28956000D03*
X21399500Y28003500D03*
X21487990Y28956000D03*
X21717000Y30121860D03*
X22011640Y30947360D03*
G54D27*
X21278500Y31289000D03*
G54D18*
X18498000Y30699500D03*
Y31149500D03*
X19348000Y30699500D03*
Y31149500D03*
G54D19*
X19748500Y28766000D03*
Y29146000D03*
G54D28*
X21153500Y30776500D03*
X21278500D03*
X21408500Y31317500D03*
X21533500D03*
X21408500Y30776500D03*
X21533500D03*
M02*
