G04 ================== begin FILE IDENTIFICATION RECORD ==================*
G04 Layout Name:  C:/Users/kjwoo_/Desktop/project/ARTWORK_haenyeo1/HAENYEO1.brd*
G04 Film Name:    TOP*
G04 File Format:  Gerber RS274X*
G04 File Origin:  Cadence Allegro 17.2-S007*
G04 Origin Date:  Sun Jan 12 23:29:10 2020*
G04 *
G04 Layer:  ETCH/TOP*
G04 Layer:  PIN/TOP*
G04 Layer:  VIA CLASS/TOP*
G04 *
G04 Offset:    (0.0000 0.0000)*
G04 Mirror:    No*
G04 Mode:      Positive*
G04 Rotation:  0*
G04 FullContactRelief:  No*
G04 UndefLineWidth:     0.0000*
G04 ================== end FILE IDENTIFICATION RECORD ====================*
%FSLAX55Y55*MOMM*%
%IR0*IPPOS*OFA0.00000B0.00000*MIA0B0*SFA1.00000B1.00000*%
%ADD20R,.6604X1.143*%
%ADD15R,.9144X1.2192*%
%ADD17C,.6096*%
%ADD27R,.9144X2.286*%
%ADD26R,.9144X2.794*%
%ADD18R,1.524X1.016*%
%ADD21C,1.27*%
%ADD19R,1.524X1.524*%
%ADD10C,1.651*%
%ADD12C,3.048*%
%ADD14R,1.27X1.27*%
%ADD23R,5.588X2.032*%
%ADD11R,1.651X1.651*%
%ADD16R,.9144X.8128*%
%ADD22R,.8128X.9144*%
%ADD13R,.8128X.8128*%
%ADD24R,.9096X.2248*%
%ADD25R,.2248X.9096*%
%ADD28C,.2*%
%ADD29C,.5*%
%ADD30C,.127*%
%ADD31C,.75*%
%ADD33C,3.3024*%
%ADD32C,1.5244*%
G75*
%LPD*%
G75*
G36*
G01X17653000Y27876500D02*
Y31559500D01*
X22479000D01*
Y27876500D01*
X17653000D01*
G37*
%LPC*%
G75*
G36*
G01X18192730Y28238450D02*
Y28403550D01*
G02X18205450Y28416270I12720J0D01*
G01X18370550D01*
G02X18383270Y28403550I0J-12720D01*
G01Y28238450D01*
G02X18370550Y28225730I-12720J0D01*
G01X18205450D01*
G02X18192730Y28238450I0J12720D01*
G37*
G36*
G01X19081730D02*
Y28403550D01*
G02X19094450Y28416270I12720J0D01*
G01X19259550D01*
G02X19272270Y28403550I0J-12720D01*
G01Y28238450D01*
G02X19259550Y28225730I-12720J0D01*
G01X19094450D01*
G02X19081730Y28238450I0J12720D01*
G37*
G36*
G01X21249640Y28122480D02*
X21122640D01*
G02X21114620Y28130500I0J8020D01*
G01Y28257500D01*
G02X21122640Y28265520I8020J0D01*
G01X21144160D01*
G03X21151350Y28282860I2J10160D01*
G01X21092270Y28341940D01*
Y28528880D01*
X20835600D01*
G02X20827580Y28536900I0J8020D01*
G01Y28740100D01*
G02X20835600Y28748120I8020J0D01*
G01X21370280D01*
X21565280Y28943120D01*
Y29093120D01*
G03X21552510Y29102940I-10160J0D01*
G02X21549240Y29102510I-3279J12289D01*
G01X21525720D01*
Y29024190D01*
G02X21525710Y29023370I-37719J50D01*
G01Y28977060D01*
G02X21450270I-37720J-21060D01*
G01Y29024180D01*
G02X21450280Y29025000I37719J-50D01*
G01Y29102510D01*
X21425720D01*
Y29024190D01*
G02X21425710Y29023370I-37719J50D01*
G01Y28977060D01*
G02X21350270I-37720J-21060D01*
G01Y29024180D01*
G02X21350280Y29025000I37719J-50D01*
G01Y29107210D01*
X21326760D01*
G02X21324170Y29107640I0J8015D01*
G03X21310720Y29098030I-3290J-9612D01*
G01Y28962090D01*
X21281910Y28933280D01*
X20730410D01*
X20723720Y28926590D01*
Y28331590D01*
X20638410Y28246280D01*
X20495660D01*
Y28228360D01*
G02X20487640Y28220340I-8020J0D01*
G01X20406360D01*
G02X20398340Y28228360I0J8020D01*
G01Y28309640D01*
G02X20406360Y28317660I8020J0D01*
G01X20487640D01*
G02X20495660Y28309640I0J-8020D01*
G01Y28291720D01*
X20619590D01*
X20678280Y28350410D01*
Y28945410D01*
X20711590Y28978720D01*
X21263090D01*
X21265280Y28980910D01*
Y29160710D01*
G02X21268110Y29171690I22715J0D01*
G01X21268740Y29172830D01*
Y29206240D01*
X21235330D01*
X21234190Y29205610D01*
G02X21223210Y29202780I-10980J19885D01*
G01X20686120D01*
G02X20669440Y29209420I-620J22713D01*
G01X20614780Y29264090D01*
Y29561590D01*
X20544590Y29631780D01*
X20414380D01*
Y29591000D01*
G02X20406360Y29582980I-8020J0D01*
G01X20279360D01*
G02X20271340Y29591000I0J8020D01*
G01Y29718000D01*
G02X20279360Y29726020I8020J0D01*
G01X20406360D01*
G02X20414380Y29718000I0J-8020D01*
G01Y29677220D01*
X20563410D01*
X20660220Y29580410D01*
Y29282910D01*
X20694910Y29248220D01*
X20860120D01*
G03X20867310Y29265560I2J10160D01*
G01X20741780Y29391090D01*
Y29900480D01*
X20701000D01*
G02X20692980Y29908500I0J8020D01*
G01Y30035500D01*
G02X20701000Y30043520I8020J0D01*
G01X20828000D01*
G02X20836020Y30035500I0J-8020D01*
G01Y29908500D01*
G02X20828000Y29900480I-8020J0D01*
G01X20787220D01*
Y29409910D01*
X20898910Y29298220D01*
X21125630D01*
G03X21132820Y29315560I2J10160D01*
G01X20868780Y29579600D01*
Y30260090D01*
X20862090Y30266780D01*
X20836020D01*
Y30226000D01*
G02X20828000Y30217980I-8020J0D01*
G01X20701000D01*
G02X20692980Y30226000I0J8020D01*
G01Y30353000D01*
G02X20701000Y30361020I8020J0D01*
G01X20828000D01*
G02X20836020Y30353000I0J-8020D01*
G01Y30312220D01*
X20880910D01*
X20914220Y30278910D01*
Y29598420D01*
X21164430Y29348210D01*
X21175650D01*
Y29356040D01*
X21173350Y29357540D01*
G02X21170210Y29361470I4380J6719D01*
G01X21169820Y29362520D01*
X20932280Y29600060D01*
Y30387090D01*
X20925590Y30393780D01*
X20882090D01*
X20228440Y31047430D01*
X20225220Y31045920D01*
G02X20135660Y31064780I-32219J69078D01*
G01X20058500D01*
X19995000Y31128280D01*
X19756520D01*
Y31115000D01*
G02X19748500Y31106980I-8020J0D01*
G01X19621500D01*
G02X19613480Y31115000I0J8020D01*
G01Y31128280D01*
X19592100D01*
X19563100Y31099280D01*
X19432950D01*
X19431730Y31095950D01*
G02X19424200Y31090680I-7530J2745D01*
G01X19271800D01*
G02X19264270Y31095950I0J8015D01*
G01X19263050Y31099280D01*
X18582950D01*
X18581730Y31095950D01*
G02X18574200Y31090680I-7530J2745D01*
G01X18421800D01*
G02X18413780Y31098700I0J8020D01*
G01Y31128280D01*
X18308740D01*
Y31117540D01*
G02X18306590Y31112080I-8008J0D01*
G01X18305230Y31110610D01*
Y30974850D01*
X18255380Y30925000D01*
Y30861000D01*
G02X18247360Y30852980I-8020J0D01*
G01X18120360D01*
G02X18112340Y30861000I0J8020D01*
G01Y30988000D01*
G02X18120360Y30996020I8020J0D01*
G01X18184360D01*
X18204790Y31016450D01*
Y31110600D01*
X18203420Y31112060D01*
G02X18201260Y31117540I5871J5480D01*
G01Y31239460D01*
G02X18209280Y31247480I8020J0D01*
G01X18300720D01*
G02X18308740Y31239460I0J-8020D01*
G01Y31228720D01*
X18489800D01*
X18510200Y31208320D01*
X18574200D01*
G02X18581730Y31203050I0J-8015D01*
G01X18582950Y31199720D01*
X19263050D01*
X19264270Y31203050D01*
G02X19271800Y31208320I7530J-2745D01*
G01X19424200D01*
G02X19431730Y31203050I0J-8015D01*
G01X19432950Y31199720D01*
X19521500D01*
X19550500Y31228720D01*
X19613480D01*
Y31242000D01*
G02X19621500Y31250020I8020J0D01*
G01X19748500D01*
G02X19756520Y31242000I0J-8020D01*
G01Y31228720D01*
X20036600D01*
X20100100Y31165220D01*
X20135660D01*
G02X20262080Y31082780I57345J-50213D01*
G01X20260570Y31079560D01*
X20900910Y30439220D01*
X20944410D01*
X20977720Y30405910D01*
Y29618880D01*
X20987110Y29609490D01*
G03X20995780Y29613080I3590J3594D01*
G01Y30470590D01*
X20741780Y30724590D01*
Y31020620D01*
X20701000D01*
G02X20692980Y31028640I0J8020D01*
G01Y31155640D01*
G02X20701000Y31163660I8020J0D01*
G01X20828000D01*
G02X20836020Y31155640I0J-8020D01*
G01Y31114860D01*
X20902730D01*
X20932280Y31144410D01*
Y31485410D01*
X20965590Y31518720D01*
X21535910D01*
X21556220Y31498410D01*
Y31439820D01*
X21579220D01*
G02X21587240Y31431800I0J-8020D01*
G01Y31203200D01*
G02X21579220Y31195180I-8020J0D01*
G01X21487780D01*
G02X21479760Y31203200I0J8020D01*
G01Y31431800D01*
G02X21487780Y31439820I8020J0D01*
G01X21510780D01*
Y31473280D01*
X20984410D01*
X20977720Y31466590D01*
Y31125590D01*
X20921550Y31069420D01*
X20836020D01*
Y31028640D01*
G02X20828000Y31020620I-8020J0D01*
G01X20787220D01*
Y30743410D01*
X21041220Y30489410D01*
Y29605380D01*
X21050610Y29595990D01*
G03X21059280Y29599580I3590J3594D01*
G01Y30194770D01*
X21241620Y30377110D01*
Y30480000D01*
G02X21249640Y30488020I8020J0D01*
G01X21271160D01*
G03X21278350Y30505360I2J10160D01*
G01X21255780Y30527930D01*
Y30654180D01*
X21232780D01*
G02X21224760Y30662200I0J8020D01*
G01Y30890800D01*
G02X21232780Y30898820I8020J0D01*
G01X21324220D01*
G02X21332240Y30890800I0J-8020D01*
G01Y30662200D01*
G02X21324220Y30654180I-8020J0D01*
G01X21301220D01*
Y30546750D01*
X21335860Y30512110D01*
Y30488020D01*
X21376640D01*
G02X21384660Y30480000I0J-8020D01*
G01Y30353000D01*
G02X21376640Y30344980I-8020J0D01*
G01X21273750D01*
X21104720Y30175950D01*
Y29591880D01*
X21156060Y29540540D01*
G03X21171340Y29541590I7182J7185D01*
G02X21177730Y29544760I6390J-4855D01*
G01X21268690D01*
G02X21276710Y29536740I0J-8020D01*
G01Y29514260D01*
G02X21268690Y29506240I-8020J0D01*
G01X21228830D01*
Y29497770D01*
X21231950Y29496470D01*
G02X21234190Y29495390I-8732J-20974D01*
G01X21235330Y29494760D01*
X21268690D01*
G02X21276710Y29486740I0J-8020D01*
G01Y29464260D01*
G02X21268690Y29456240I-8020J0D01*
G01X21235330D01*
X21234190Y29455610D01*
G02X21233150Y29455070I-10986J19887D01*
G03Y29445930I2219J-4570D01*
G02X21234190Y29445390I-9946J-20427D01*
G01X21235330Y29444760D01*
X21268690D01*
G02X21276710Y29436740I0J-8020D01*
G01Y29414260D01*
G02X21268690Y29406240I-8020J0D01*
G01X21235330D01*
X21234190Y29405610D01*
G02X21233150Y29405070I-10986J19887D01*
G03Y29395930I2219J-4570D01*
G02X21234190Y29395390I-9946J-20427D01*
G01X21235330Y29394760D01*
X21268690D01*
G02X21276710Y29386740I0J-8020D01*
G01Y29364260D01*
G02X21268690Y29356240I-8020J0D01*
G01X21235330D01*
X21234190Y29355610D01*
G02X21233150Y29355070I-10986J19887D01*
G03Y29345930I2219J-4570D01*
G02X21234190Y29345390I-9946J-20427D01*
G01X21235330Y29344760D01*
X21268690D01*
G02X21276710Y29336740I0J-8020D01*
G01Y29314260D01*
G02X21268690Y29306240I-8020J0D01*
G01X21236080D01*
X21233270Y29303430D01*
G03X21236860Y29294760I3594J-3590D01*
G01X21268690D01*
G02X21276710Y29286740I0J-8020D01*
G01Y29264260D01*
G02X21268690Y29256240I-8020J0D01*
G01X21235330D01*
X21234190Y29255610D01*
G02X21233150Y29255070I-10986J19887D01*
G03Y29245930I2219J-4570D01*
G02X21234190Y29245390I-9946J-20427D01*
G01X21235330Y29244760D01*
X21268690D01*
G02X21276710Y29236740I0J-8020D01*
G01Y29214210D01*
X21299240D01*
G02X21307260Y29206190I0J-8020D01*
G01Y29172830D01*
X21307890Y29171690D01*
G02X21308970Y29169450I-19894J-10972D01*
G01X21310270Y29166330D01*
X21318740D01*
Y29206190D01*
G02X21326760Y29214210I8020J0D01*
G01X21349240D01*
G02X21357260Y29206190I0J-8020D01*
G01Y29194960D01*
G03X21365390Y29190900I5081J4D01*
G02X21368740Y29193140I22611J-30190D01*
G01Y29206190D01*
G02X21376760Y29214210I8020J0D01*
G01X21399240D01*
G02X21403760Y29212810I-7J-8018D01*
G03X21417160Y29214540I5728J8391D01*
G02X21426760Y29218910I9600J-8360D01*
G01X21449240D01*
G02X21458840Y29214540I0J-12730D01*
G03X21472240Y29212810I7672J6661D01*
G02X21476760Y29214210I4527J-6618D01*
G01X21499240D01*
G02X21503760Y29212810I-7J-8018D01*
G03X21517160Y29214540I5728J8391D01*
G02X21526760Y29218910I9600J-8360D01*
G01X21549240D01*
G02X21558840Y29214540I0J-12730D01*
G03X21572240Y29212810I7672J6661D01*
G02X21576760Y29214210I4527J-6618D01*
G01X21599240D01*
G02X21607260Y29206190I0J-8020D01*
G01Y29172830D01*
X21607890Y29171690D01*
G02X21608430Y29170650I-19887J-10986D01*
G03X21617570I4570J2219D01*
G02X21618110Y29171690I20427J-9946D01*
G01X21618740Y29172830D01*
Y29206190D01*
G02X21626760Y29214210I8020J0D01*
G01X21649290D01*
Y29236740D01*
G02X21657310Y29244760I8020J0D01*
G01X21748270D01*
G02X21756290Y29236740I0J-8020D01*
G01Y29214260D01*
G02X21748270Y29206240I-8020J0D01*
G01X21657260D01*
Y29172830D01*
X21657890Y29171690D01*
G02X21660720Y29160710I-19885J-10980D01*
G01Y28897120D01*
X21809720Y28748120D01*
X22344400D01*
G02X22352420Y28740100I0J-8020D01*
G01Y28536900D01*
G02X22344400Y28528880I-8020J0D01*
G01X22087730D01*
Y28504790D01*
X22080080Y28497140D01*
Y28265520D01*
X22120860D01*
G02X22128880Y28257500I0J-8020D01*
G01Y28130500D01*
G02X22120860Y28122480I-8020J0D01*
G01X21993860D01*
G02X21985840Y28130500I0J8020D01*
G01Y28257500D01*
G02X21993860Y28265520I8020J0D01*
G01X22034640D01*
Y28515960D01*
X22038890Y28520210D01*
G03X22035300Y28528880I-3594J3590D01*
G01X21785600D01*
G02X21777580Y28536900I0J8020D01*
G01Y28716000D01*
X21615280Y28878300D01*
Y28904330D01*
G03X21597940Y28911520I-10160J2D01*
G01X21402420Y28716000D01*
Y28536900D01*
G02X21394400Y28528880I-8020J0D01*
G01X21137710D01*
Y28360760D01*
X21208860Y28289610D01*
Y28265520D01*
X21249640D01*
G02X21257660Y28257500I0J-8020D01*
G01Y28130500D01*
G02X21249640Y28122480I-8020J0D01*
G37*
G36*
G01X22288500Y29070280D02*
X22161500D01*
G02X22148780Y29083000I0J12720D01*
G01Y29190590D01*
X21836590Y29502780D01*
X21765470D01*
G03X21755860Y29489330I2J-10160D01*
G02X21756290Y29486740I-7585J-2590D01*
G01Y29464260D01*
G02X21748270Y29456240I-8020J0D01*
G01X21657310D01*
G02X21649290Y29464260I0J8020D01*
G01Y29486740D01*
G02X21657310Y29494760I8020J0D01*
G01X21697170D01*
Y29503230D01*
X21694050Y29504530D01*
G02X21691810Y29505610I8732J20974D01*
G01X21690670Y29506240D01*
X21657310D01*
G02X21649290Y29514260I0J8020D01*
G01Y29536740D01*
G02X21657310Y29544760I8020J0D01*
G01X21690670D01*
X21691810Y29545390D01*
G02X21692850Y29545930I10986J-19887D01*
G03Y29555070I-2219J4570D01*
G02X21691810Y29555610I9946J20427D01*
G01X21690670Y29556240D01*
X21657310D01*
G02X21649290Y29564260I0J8020D01*
G01Y29586790D01*
X21626760D01*
G02X21622240Y29588190I7J8018D01*
G03X21608840Y29586460I-5728J-8391D01*
G02X21599240Y29582090I-9600J8360D01*
G01X21576760D01*
G02X21567160Y29586460I0J12730D01*
G03X21553760Y29588190I-7672J-6661D01*
G02X21549240Y29586790I-4527J6618D01*
G01X21526760D01*
G02X21518740Y29594810I0J8020D01*
G01Y29634670D01*
X21510270D01*
X21508970Y29631550D01*
G02X21507890Y29629310I-20974J8732D01*
G01X21507260Y29628170D01*
Y29594810D01*
G02X21499240Y29586790I-8020J0D01*
G01X21476760D01*
G02X21468740Y29594810I0J8020D01*
G01Y29628170D01*
X21468110Y29629310D01*
G02X21467570Y29630350I19887J10986D01*
G03X21458430I-4570J-2219D01*
G02X21457890Y29629310I-20427J9946D01*
G01X21457260Y29628170D01*
Y29594810D01*
G02X21449240Y29586790I-8020J0D01*
G01X21426760D01*
G02X21418740Y29594810I0J8020D01*
G01Y29628170D01*
X21418110Y29629310D01*
G02X21417030Y29631550I19894J10972D01*
G01X21415730Y29634670D01*
X21407260D01*
Y29594810D01*
G02X21399240Y29586790I-8020J0D01*
G01X21376760D01*
G02X21368740Y29594810I0J8020D01*
G01Y29685770D01*
G02X21376760Y29693790I8020J0D01*
G01X21399240D01*
G02X21405950Y29690160I0J-8017D01*
G01X21407450Y29687870D01*
X21415280D01*
Y29699080D01*
X21355580Y29758780D01*
X21326590D01*
X21293280Y29792090D01*
Y30111270D01*
X21326590Y30144580D01*
X21391480D01*
Y30185360D01*
G02X21399500Y30193380I8020J0D01*
G01X21526500D01*
G02X21534520Y30185360I0J-8020D01*
G01Y30159580D01*
X21695940D01*
G02Y30084140I21060J-37720D01*
G01X21534520D01*
Y30058360D01*
G02X21526500Y30050340I-8020J0D01*
G01X21399500D01*
G02X21391480Y30058360I0J8020D01*
G01Y30099140D01*
X21345410D01*
X21338720Y30092450D01*
Y29810910D01*
X21345410Y29804220D01*
X21374400D01*
X21422940Y29755680D01*
G03X21440280Y29762870I7180J7188D01*
G01Y29836980D01*
X21399500D01*
G02X21391480Y29845000I0J8020D01*
G01Y29972000D01*
G02X21399500Y29980020I8020J0D01*
G01X21526500D01*
G02X21534520Y29972000I0J-8020D01*
G01Y29845000D01*
G02X21526500Y29836980I-8020J0D01*
G01X21485720D01*
Y29742880D01*
X21510720Y29717880D01*
Y29702970D01*
G03X21524170Y29693360I10160J2D01*
G02X21526760Y29693790I2590J-7585D01*
G01X21549240D01*
G02X21553760Y29692390I-7J-8018D01*
G03X21567160Y29694120I5728J8391D01*
G02X21576760Y29698490I9600J-8360D01*
G01X21599240D01*
G02X21608840Y29694120I0J-12730D01*
G03X21622240Y29692390I7672J6661D01*
G02X21626760Y29693790I4527J-6618D01*
G01X21649240D01*
G02X21657260Y29685770I0J-8020D01*
G01Y29682270D01*
G03X21674600Y29675080I10160J-2D01*
G01X21676740Y29677220D01*
X22152160D01*
X22153370Y29680560D01*
G02Y29628440I71630J-26060D01*
G01X22152160Y29631780D01*
X21695560D01*
X21681350Y29617570D01*
X21657260D01*
Y29594760D01*
X21690670D01*
X21691810Y29595390D01*
G02X21702790Y29598220I10980J-19885D01*
G01X22049380D01*
G02X22066060Y29591580I620J-22713D01*
G01X22189620Y29468010D01*
G02X22157490Y29435880I35380J-67510D01*
G01X22040590Y29552780D01*
X21875380D01*
G03X21868190Y29535440I-2J-10160D01*
G01X22180910Y29222720D01*
X22288500D01*
G02X22301220Y29210000I0J-12720D01*
G01Y29083000D01*
G02X22288500Y29070280I-12720J0D01*
G37*
G36*
G01X21437220Y28122480D02*
Y28024560D01*
G02X21361780I-37720J-21060D01*
G01Y28122480D01*
X21336000D01*
G02X21327980Y28130500I0J8020D01*
G01Y28257500D01*
G02X21336000Y28265520I8020J0D01*
G01X21463000D01*
G02X21471020Y28257500I0J-8020D01*
G01Y28244220D01*
X21772480D01*
Y28257500D01*
G02X21780500Y28265520I8020J0D01*
G01X21907500D01*
G02X21915520Y28257500I0J-8020D01*
G01Y28130500D01*
G02X21907500Y28122480I-8020J0D01*
G01X21780500D01*
G02X21772480Y28130500I0J8020D01*
G01Y28143780D01*
X21471020D01*
Y28130500D01*
G02X21463000Y28122480I-8020J0D01*
G01X21437220D01*
G37*
G36*
G01X20264520Y28003500D02*
G02X20256500Y27995480I-8020J0D01*
G01X20129500D01*
G02X20121480Y28003500I0J8020D01*
G01Y28130500D01*
G02X20129500Y28138520I8020J0D01*
G01X20256500D01*
G02X20264520Y28130500I0J-8020D01*
G01Y28089720D01*
X20322250D01*
X20374250Y28141720D01*
X20398340D01*
Y28159640D01*
G02X20406360Y28167660I8020J0D01*
G01X20487640D01*
G02X20495660Y28159640I0J-8020D01*
G01Y28078360D01*
G02X20487640Y28070340I-8020J0D01*
G01X20406360D01*
G02X20398340Y28078360I0J8020D01*
G01Y28089290D01*
G03X20389670Y28092880I-5080J-4D01*
G01X20341070Y28044280D01*
X20264520D01*
Y28003500D01*
G37*
G36*
G01Y28216860D02*
G02X20256500Y28208840I-8020J0D01*
G01X20129500D01*
G02X20121480Y28216860I0J8020D01*
G01Y28230140D01*
X20025360D01*
G02Y28330580I0J50220D01*
G01X20121480D01*
Y28343860D01*
G02X20129500Y28351880I8020J0D01*
G01X20256500D01*
G02X20264520Y28343860I0J-8020D01*
G01Y28216860D01*
G37*
G36*
G01X20330590Y28933280D02*
X20233780Y29030090D01*
Y29119760D01*
X20215860D01*
G02X20207840Y29127780I0J8020D01*
G01Y29219220D01*
G02X20215860Y29227240I8020J0D01*
G01X20297140D01*
G02X20305160Y29219220I0J-8020D01*
G01Y29127780D01*
G02X20297140Y29119760I-8020J0D01*
G01X20279220D01*
Y29048910D01*
X20349410Y28978720D01*
X20360260D01*
Y29016960D01*
G02X20368280Y29024980I8020J0D01*
G01X20459720D01*
G02X20467740Y29016960I0J-8020D01*
G01Y28895040D01*
G02X20459720Y28887020I-8020J0D01*
G01X20436720D01*
Y28745790D01*
X20422990Y28732060D01*
G03X20430180Y28714720I7188J-7180D01*
G01X20447000D01*
G02X20459720Y28702000I0J-12720D01*
G01Y28575000D01*
G02X20447000Y28562280I-12720J0D01*
G01X20320000D01*
G02X20307280Y28575000I0J12720D01*
G01Y28702000D01*
G02X20320000Y28714720I12720J0D01*
G01X20360780D01*
Y28734110D01*
X20391280Y28764610D01*
Y28887020D01*
X20368280D01*
G02X20360260Y28895040I0J8020D01*
G01Y28933280D01*
X20330590D01*
G37*
G36*
G01X19417720Y28988620D02*
Y28829000D01*
G02X19317280I-50220J0D01*
G01Y28988620D01*
X19304000D01*
G02X19295980Y28996640I0J8020D01*
G01Y29123640D01*
G02X19304000Y29131660I8020J0D01*
G01X19431000D01*
G02X19439020Y29123640I0J-8020D01*
G01Y28996640D01*
G02X19431000Y28988620I-8020J0D01*
G01X19417720D01*
G37*
G36*
G01X18084220Y29367300D02*
G02X17983780I-50220J-157300D01*
G01Y29531360D01*
X17920280Y29594860D01*
Y29706490D01*
G02X17921700Y29718330I50218J-18D01*
G01X17921840Y29718920D01*
Y29747140D01*
G02X17929860Y29755160I8020J0D01*
G01X17958100D01*
X17958690Y29755300D01*
G02X17970500Y29756710I11817J-48809D01*
G01X18332490D01*
X18407500Y29831720D01*
X18470480D01*
Y29845000D01*
G02X18478500Y29853020I8020J0D01*
G01X18605500D01*
G02X18613520Y29845000I0J-8020D01*
G01Y29831720D01*
X18676500D01*
X18708000Y29800220D01*
X18823000D01*
G02X18834840Y29798800I-18J-50218D01*
G01X18835430Y29798660D01*
X18868720D01*
G02X18876740Y29790640I0J-8020D01*
G01Y29709360D01*
G02X18868720Y29701340I-8020J0D01*
G01X18835430D01*
X18834840Y29701200D01*
G02X18823000Y29699780I-11858J48798D01*
G01X18666400D01*
X18634900Y29731280D01*
X18613520D01*
Y29718000D01*
G02X18605500Y29709980I-8020J0D01*
G01X18478500D01*
G02X18470480Y29718000I0J8020D01*
G01Y29731280D01*
X18449100D01*
X18374090Y29656270D01*
X18020720D01*
Y29636460D01*
X18084220Y29572960D01*
Y29367300D01*
G37*
G36*
G01X19770960Y29743430D02*
Y29771650D01*
G02X19778980Y29779670I8020J0D01*
G01X19806160D01*
X19812600Y29786110D01*
G03X19809000Y29794780I-3595J3590D01*
G01X19719710D01*
X19380780Y30133710D01*
Y30229500D01*
G02X19389960Y30258440I50207J0D01*
G01Y30286650D01*
G02X19397980Y30294670I8020J0D01*
G01X19464020D01*
G02X19472040Y30286650I0J-8020D01*
G01Y30258440D01*
G02X19481220Y30229500I-41027J-28940D01*
G01Y30175310D01*
X19761310Y29895220D01*
X19859310D01*
X19961530Y29793000D01*
X19862220Y29693690D01*
Y29316200D01*
X19798720Y29252700D01*
Y29230220D01*
X19824700D01*
G02X19832720Y29222200I0J-8020D01*
G01Y29069800D01*
G02X19824700Y29061780I-8020J0D01*
G01X19672300D01*
G02X19664280Y29069800I0J8020D01*
G01Y29222200D01*
G02X19672300Y29230220I8020J0D01*
G01X19698280D01*
Y29294300D01*
X19761780Y29357800D01*
Y29714490D01*
G02X19770960Y29743430I50207J0D01*
G37*
G36*
G01X19439020Y29210000D02*
G02X19431000Y29201980I-8020J0D01*
G01X19304000D01*
G02X19295980Y29210000I0J8020D01*
G01Y29337000D01*
G02X19304000Y29345020I8020J0D01*
G01X19368000D01*
X19507780Y29484800D01*
Y29714500D01*
G02X19516960Y29743440I50207J0D01*
G01Y29771650D01*
G02X19524980Y29779670I8020J0D01*
G01X19591020D01*
G02X19599040Y29771650I0J-8020D01*
G01Y29743440D01*
G02X19608220Y29714500I-41027J-28940D01*
G01Y29443200D01*
X19439020Y29274000D01*
Y29210000D01*
G37*
G36*
G01X20210160Y29327780D02*
G02X20202140Y29319760I-8020J0D01*
G01X20120860D01*
G02X20115390Y29321920I0J8006D01*
G01X20113930Y29323280D01*
X20002500D01*
G02Y29423720I0J50220D01*
G01X20113930D01*
X20115390Y29425080D01*
G02X20120860Y29427240I5470J-5846D01*
G01X20202140D01*
G02X20210160Y29419220I0J-8020D01*
G01Y29385930D01*
X20210300Y29385340D01*
G02Y29361660I-48800J-11840D01*
G01X20210160Y29361070D01*
Y29327780D01*
G37*
G36*
G01X20400160D02*
G02X20392140Y29319760I-8020J0D01*
G01X20310860D01*
G02X20302840Y29327780I0J8020D01*
G01Y29395110D01*
X20186340Y29511610D01*
Y29565530D01*
X20168890Y29582980D01*
X20066000D01*
G02X20057980Y29591000I0J8020D01*
G01Y29718000D01*
G02X20066000Y29726020I8020J0D01*
G01X20193000D01*
G02X20201020Y29718000I0J-8020D01*
G01Y29615110D01*
X20231780Y29584350D01*
Y29530430D01*
X20334970Y29427240D01*
X20392140D01*
G02X20400160Y29419220I0J-8020D01*
G01Y29327780D01*
G37*
G36*
G01X19481220Y29714500D02*
Y29527500D01*
G02X19380780I-50220J0D01*
G01Y29714500D01*
G02X19389960Y29743440I50207J0D01*
G01Y29771650D01*
G02X19397980Y29779670I8020J0D01*
G01X19464020D01*
G02X19472040Y29771650I0J-8020D01*
G01Y29743440D01*
G02X19481220Y29714500I-41027J-28940D01*
G37*
G36*
G01X19735220D02*
Y29527500D01*
G02X19634780I-50220J0D01*
G01Y29714500D01*
G02X19643960Y29743440I50207J0D01*
G01Y29771650D01*
G02X19651980Y29779670I8020J0D01*
G01X19718020D01*
G02X19726040Y29771650I0J-8020D01*
G01Y29743440D01*
G02X19735220Y29714500I-41027J-28940D01*
G37*
G36*
G01X21268690Y29556240D02*
X21177730D01*
G02X21169710Y29564260I0J8020D01*
G01Y29586740D01*
G02X21177730Y29594760I8020J0D01*
G01X21268740D01*
Y29685770D01*
G02X21276760Y29693790I8020J0D01*
G01X21299240D01*
G02X21307260Y29685770I0J-8020D01*
G01Y29594810D01*
G02X21299240Y29586790I-8020J0D01*
G01X21276710D01*
Y29564260D01*
G02X21268690Y29556240I-8020J0D01*
G37*
G36*
G01X18118300Y30112280D02*
X18020720Y30014700D01*
Y29845000D01*
G02X18019300Y29833160I-50218J18D01*
G01X18019160Y29832570D01*
Y29815860D01*
G02X18011140Y29807840I-8020J0D01*
G01X18004330D01*
X18002910Y29806640D01*
G02X17938090I-32410J38360D01*
G01X17936670Y29807840D01*
X17929860D01*
G02X17921840Y29815860I0J8020D01*
G01Y29832570D01*
X17921700Y29833160D01*
G02X17920280Y29845000I48798J11858D01*
G01Y30056300D01*
X18076700Y30212720D01*
X18152980D01*
Y30226000D01*
G02X18161000Y30234020I8020J0D01*
G01X18288000D01*
G02X18296020Y30226000I0J-8020D01*
G01Y30099000D01*
G02X18288000Y30090980I-8020J0D01*
G01X18161000D01*
G02X18152980Y30099000I0J8020D01*
G01Y30112280D01*
X18118300D01*
G37*
G36*
G01X18296020Y29885640D02*
G02X18288000Y29877620I-8020J0D01*
G01X18161000D01*
G02X18152980Y29885640I0J8020D01*
G01Y30012640D01*
G02X18161000Y30020660I8020J0D01*
G01X18288000D01*
G02X18296020Y30012640I0J-8020D01*
G01Y29999360D01*
X18361780D01*
X18407500Y30045080D01*
X18470480D01*
Y30058360D01*
G02X18478500Y30066380I8020J0D01*
G01X18605500D01*
G02X18613520Y30058360I0J-8020D01*
G01Y30045080D01*
X18693020D01*
X18747880Y29990220D01*
X18772780D01*
Y30051640D01*
X18786420Y30065280D01*
Y30154480D01*
X18773140D01*
G02X18765120Y30162500I0J8020D01*
G01Y30289500D01*
G02X18773140Y30297520I8020J0D01*
G01X18786420D01*
Y30393640D01*
G02X18886860I50220J0D01*
G01Y30297520D01*
X18900140D01*
G02X18908160Y30289500I0J-8020D01*
G01Y30162500D01*
G02X18900140Y30154480I-8020J0D01*
G01X18886860D01*
Y30023680D01*
X18873220Y30010040D01*
Y29987570D01*
X18874580Y29986110D01*
G02X18876740Y29980640I-5846J-5470D01*
G01Y29899360D01*
G02X18868720Y29891340I-8020J0D01*
G01X18835430D01*
X18834840Y29891200D01*
G02X18823000Y29889780I-11858J48798D01*
G01X18706280D01*
X18651420Y29944640D01*
X18613520D01*
Y29931360D01*
G02X18605500Y29923340I-8020J0D01*
G01X18478500D01*
G02X18470480Y29931360I0J8020D01*
G01Y29944640D01*
X18449100D01*
X18403380Y29898920D01*
X18296020D01*
Y29885640D01*
G37*
G36*
G01X20260570Y30571560D02*
X20406220Y30425910D01*
Y30149050D01*
X20511750Y30043520D01*
X20614640D01*
G02X20622660Y30035500I0J-8020D01*
G01Y29908500D01*
G02X20614640Y29900480I-8020J0D01*
G01X20487640D01*
G02X20479620Y29908500I0J8020D01*
G01Y30011390D01*
X20360780Y30130230D01*
Y30407090D01*
X20228380Y30539490D01*
G02X20262080Y30574780I-35374J67516D01*
G01X20260570Y30571560D01*
G37*
G36*
G01X21442200Y30937780D02*
X21358280Y31021700D01*
Y31196270D01*
X21356920Y31197730D01*
G02X21354760Y31203200I5846J5470D01*
G01Y31431800D01*
G02X21362780Y31439820I8020J0D01*
G01X21454220D01*
G02X21462240Y31431800I0J-8020D01*
G01Y31203200D01*
G02X21460080Y31197730I-8006J0D01*
G01X21458720Y31196270D01*
Y31063300D01*
X21483800Y31038220D01*
X21911120D01*
X21951760Y30997580D01*
X22011640D01*
G02X22049360Y30914210I0J-50218D01*
G01Y30805520D01*
X22075140D01*
G02X22083160Y30797500I0J-8020D01*
G01Y30670500D01*
G02X22075140Y30662480I-8020J0D01*
G01X22049360D01*
Y30488020D01*
X22075140D01*
G02X22083160Y30480000I0J-8020D01*
G01Y30353000D01*
G02X22075140Y30344980I-8020J0D01*
G01X22049360D01*
Y30170520D01*
X22075140D01*
G02X22083160Y30162500I0J-8020D01*
G01Y30035500D01*
G02X22075140Y30027480I-8020J0D01*
G01X21948140D01*
G02X21940120Y30035500I0J8020D01*
G01Y30162500D01*
G02X21948140Y30170520I8020J0D01*
G01X21973920D01*
Y30344980D01*
X21948140D01*
G02X21940120Y30353000I0J8020D01*
G01Y30480000D01*
G02X21948140Y30488020I8020J0D01*
G01X21973920D01*
Y30662480D01*
X21948140D01*
G02X21940120Y30670500I0J8020D01*
G01Y30797500D01*
G02X21948140Y30805520I8020J0D01*
G01X21973920D01*
Y30897140D01*
X21910160D01*
X21869520Y30937780D01*
X21442200D01*
G37*
G36*
G01X19524980Y30164330D02*
G02X19516960Y30172350I0J8020D01*
G01Y30200560D01*
G02Y30258440I41040J28940D01*
G01Y30286650D01*
G02X19524980Y30294670I8020J0D01*
G01X19591020D01*
G02X19599040Y30286650I0J-8020D01*
G01Y30279720D01*
X19634780D01*
Y30357650D01*
X19743850Y30466720D01*
X20150300D01*
X20187800Y30429220D01*
X20256500D01*
G02X20269220Y30416500I0J-12720D01*
G01Y30289500D01*
G02X20256500Y30276780I-12720J0D01*
G01X20129500D01*
G02X20116780Y30289500I0J12720D01*
G01Y30358200D01*
X20108700Y30366280D01*
X19785450D01*
X19735220Y30316050D01*
Y30229500D01*
G02X19726040Y30200560I-50207J0D01*
G01Y30172350D01*
G02X19718020Y30164330I-8020J0D01*
G01X19651980D01*
G02X19643960Y30172350I0J8020D01*
G01Y30179280D01*
X19599040D01*
Y30172350D01*
G02X19591020Y30164330I-8020J0D01*
G01X19524980D01*
G37*
G36*
G01X20260570Y30825560D02*
X20573860Y30512270D01*
Y30361020D01*
X20614640D01*
G02X20622660Y30353000I0J-8020D01*
G01Y30226000D01*
G02X20614640Y30217980I-8020J0D01*
G01X20487640D01*
G02X20479620Y30226000I0J8020D01*
G01Y30353000D01*
G02X20487640Y30361020I8020J0D01*
G01X20528420D01*
Y30493450D01*
X20228380Y30793490D01*
G02X20262080Y30828780I-35374J67516D01*
G01X20260570Y30825560D01*
G37*
G36*
G01X19617440Y30826550D02*
X19526470Y30735590D01*
X19451470D01*
X19432220Y30716340D01*
Y30648700D01*
G02X19424200Y30640680I-8020J0D01*
G01X19271800D01*
G02X19264270Y30645950I0J8015D01*
G01X19263050Y30649280D01*
X18582950D01*
X18581730Y30645950D01*
G02X18574200Y30640680I-7530J2745D01*
G01X18421800D01*
G02X18413780Y30648700I0J8020D01*
G01Y30750300D01*
G02X18421800Y30758320I8020J0D01*
G01X18574200D01*
G02X18581730Y30753050I0J-8015D01*
G01X18582950Y30749720D01*
X19263050D01*
X19264270Y30753050D01*
G02X19271800Y30758320I7530J-2745D01*
G01X19332160D01*
X19409870Y30836030D01*
X19484870D01*
X19613480Y30964640D01*
Y31028640D01*
G02X19621500Y31036660I8020J0D01*
G01X19748500D01*
G02X19756520Y31028640I0J-8020D01*
G01Y30901640D01*
G02X19748500Y30893620I-8020J0D01*
G01X19735220D01*
Y30670500D01*
G02X19634780I-50220J0D01*
G01Y30819370D01*
G03X19617440Y30826550I-10158J-3D01*
G37*
G36*
G01X17894280Y30861000D02*
Y30988000D01*
G02X17907000Y31000720I12720J0D01*
G01X18034000D01*
G02X18046720Y30988000I0J-12720D01*
G01Y30861000D01*
G02X18034000Y30848280I-12720J0D01*
G01X17907000D01*
G02X17894280Y30861000I0J12720D01*
G37*
G36*
G01X17881560Y31117540D02*
Y31239460D01*
G02X17894280Y31252180I12720J0D01*
G01X17985720D01*
G02X17998440Y31239460I0J-12720D01*
G01Y31117540D01*
G02X17985720Y31104820I-12720J0D01*
G01X17894280D01*
G02X17881560Y31117540I0J12720D01*
G37*
G36*
G01X18973780Y30162500D02*
Y30289500D01*
G02X18986500Y30302220I12720J0D01*
G01X19113500D01*
G02X19126220Y30289500I0J-12720D01*
G01Y30162500D01*
G02X19113500Y30149780I-12720J0D01*
G01X18986500D01*
G02X18973780Y30162500I0J12720D01*
G37*
G36*
G01X18964560Y29804360D02*
Y29885640D01*
G02X18977280Y29898360I12720J0D01*
G01X19068720D01*
G02X19081440Y29885640I0J-12720D01*
G01Y29804360D01*
G02X19068720Y29791640I-12720J0D01*
G01X18977280D01*
G02X18964560Y29804360I0J12720D01*
G37*
G36*
G01X19766260Y30172350D02*
Y30286650D01*
G02X19778980Y30299370I12720J0D01*
G01X19845020D01*
G02X19857740Y30286650I0J-12720D01*
G01Y30172350D01*
G02X19845020Y30159630I-12720J0D01*
G01X19778980D01*
G02X19766260Y30172350I0J12720D01*
G37*
G36*
G01X20040560Y28895040D02*
Y29016960D01*
G02X20053280Y29029680I12720J0D01*
G01X20144720D01*
G02X20157440Y29016960I0J-12720D01*
G01Y28895040D01*
G02X20144720Y28882320I-12720J0D01*
G01X20053280D01*
G02X20040560Y28895040I0J12720D01*
G37*
G36*
G01X21318740Y29594810D02*
Y29685770D01*
G02X21326760Y29693790I8020J0D01*
G01X21349240D01*
G02X21357260Y29685770I0J-8020D01*
G01Y29594810D01*
G02X21349240Y29586790I-8020J0D01*
G01X21326760D01*
G02X21318740Y29594810I0J8020D01*
G37*
G36*
G01X21224760Y31149300D02*
Y31428700D01*
G02X21232780Y31436720I8020J0D01*
G01X21324220D01*
G02X21332240Y31428700I0J-8020D01*
G01Y31149300D01*
G02X21324220Y31141280I-8020J0D01*
G01X21232780D01*
G02X21224760Y31149300I0J8020D01*
G37*
G36*
G01X21099760Y30662200D02*
Y30890800D01*
G02X21107780Y30898820I8020J0D01*
G01X21199220D01*
G02X21207240Y30890800I0J-8020D01*
G01Y30662200D01*
G02X21199220Y30654180I-8020J0D01*
G01X21107780D01*
G02X21099760Y30662200I0J8020D01*
G37*
G36*
G01X20688280Y31242000D02*
Y31369000D01*
G02X20701000Y31381720I12720J0D01*
G01X20828000D01*
G02X20840720Y31369000I0J-12720D01*
G01Y31242000D01*
G02X20828000Y31229280I-12720J0D01*
G01X20701000D01*
G02X20688280Y31242000I0J12720D01*
G37*
G36*
G01X21649290Y29264260D02*
Y29286740D01*
G02X21657310Y29294760I8020J0D01*
G01X21748270D01*
G02X21756290Y29286740I0J-8020D01*
G01Y29264260D01*
G02X21748270Y29256240I-8020J0D01*
G01X21657310D01*
G02X21649290Y29264260I0J8020D01*
G37*
G36*
G01Y29314260D02*
Y29336740D01*
G02X21657310Y29344760I8020J0D01*
G01X21748270D01*
G02X21756290Y29336740I0J-8020D01*
G01Y29314260D01*
G02X21748270Y29306240I-8020J0D01*
G01X21657310D01*
G02X21649290Y29314260I0J8020D01*
G37*
G36*
G01Y29364260D02*
Y29386740D01*
G02X21657310Y29394760I8020J0D01*
G01X21748270D01*
G02X21756290Y29386740I0J-8020D01*
G01Y29364260D01*
G02X21748270Y29356240I-8020J0D01*
G01X21657310D01*
G02X21649290Y29364260I0J8020D01*
G37*
G36*
G01Y29414260D02*
Y29436740D01*
G02X21657310Y29444760I8020J0D01*
G01X21748270D01*
G02X21756290Y29436740I0J-8020D01*
G01Y29414260D01*
G02X21748270Y29406240I-8020J0D01*
G01X21657310D01*
G02X21649290Y29414260I0J8020D01*
G37*
G36*
G01X21450280Y30353000D02*
Y30480000D01*
G02X21463000Y30492720I12720J0D01*
G01X21590000D01*
G02X21602720Y30480000I0J-12720D01*
G01Y30353000D01*
G02X21590000Y30340280I-12720J0D01*
G01X21463000D01*
G02X21450280Y30353000I0J12720D01*
G37*
G36*
G01X21354760Y30662200D02*
Y30890800D01*
G02X21362780Y30898820I8020J0D01*
G01X21454220D01*
G02X21462240Y30890800I0J-8020D01*
G01Y30662200D01*
G02X21454220Y30654180I-8020J0D01*
G01X21362780D01*
G02X21354760Y30662200I0J8020D01*
G37*
G36*
G01X21475060D02*
Y30890800D01*
G02X21487780Y30903520I12720J0D01*
G01X21579220D01*
G02X21591940Y30890800I0J-12720D01*
G01Y30662200D01*
G02X21579220Y30649480I-12720J0D01*
G01X21487780D01*
G02X21475060Y30662200I0J12720D01*
G37*
G36*
G01X22148780Y30035500D02*
Y30162500D01*
G02X22161500Y30175220I12720J0D01*
G01X22288500D01*
G02X22301220Y30162500I0J-12720D01*
G01Y30035500D01*
G02X22288500Y30022780I-12720J0D01*
G01X22161500D01*
G02X22148780Y30035500I0J12720D01*
G37*
G36*
G01Y30353000D02*
Y30480000D01*
G02X22161500Y30492720I12720J0D01*
G01X22288500D01*
G02X22301220Y30480000I0J-12720D01*
G01Y30353000D01*
G02X22288500Y30340280I-12720J0D01*
G01X22161500D01*
G02X22148780Y30353000I0J12720D01*
G37*
G36*
G01Y30670500D02*
Y30797500D01*
G02X22161500Y30810220I12720J0D01*
G01X22288500D01*
G02X22301220Y30797500I0J-12720D01*
G01Y30670500D01*
G02X22288500Y30657780I-12720J0D01*
G01X22161500D01*
G02X22148780Y30670500I0J12720D01*
G37*
G36*
G01X19735300Y28681780D02*
X19578300Y28524780D01*
X19018800D01*
X18973220Y28479200D01*
Y28404310D01*
G02X18872780Y28399340I-46221J-83309D01*
G01Y28520800D01*
X18977200Y28625220D01*
X19536700D01*
X19664280Y28752800D01*
Y28842200D01*
G02X19672300Y28850220I8020J0D01*
G01X19824700D01*
G02X19832720Y28842200I0J-8020D01*
G01Y28689800D01*
G02X19824700Y28681780I-8020J0D01*
G01X19735300D01*
G37*
G36*
G01X17983780Y28681200D02*
Y28760800D01*
X18357230Y29134260D01*
X18355640Y29137520D01*
G02X18431520Y29061640I148360J72480D01*
G01X18428260Y29063230D01*
X18086020Y28721000D01*
X18088220Y28718800D01*
Y28401960D01*
G02X17987780I-50220J-80960D01*
G01Y28677200D01*
X17983780Y28681200D01*
G37*
G54D33*
X18974000Y29210000D03*
G54D32*
X20129500Y28638500D03*
%LPD*%
G75*
G54D10*
X18038000Y28321000D03*
X18927000D03*
G54D11*
X18288000D03*
X19177000D03*
G54D20*
X19812000Y29714500D03*
X19685000D03*
X19558000D03*
X19431000D03*
Y30229500D03*
X19558000D03*
X19685000D03*
X19812000D03*
G54D30*
G01X17940000Y31099740D02*
Y31178500D01*
G01D02*
Y31257260D01*
G01X17876480Y31178500D02*
X17940000D01*
G01D02*
X18003520D01*
G01X17970500Y30843200D02*
Y30924500D01*
G01D02*
Y31005800D01*
G01X17889200Y30924500D02*
X17970500D01*
G01D02*
X18051800D01*
G01X19023000Y29786560D02*
Y29845000D01*
G01D02*
Y29903440D01*
G01X18959480Y29845000D02*
X19023000D01*
G01D02*
X19086520D01*
G01X19050000Y30144700D02*
Y30226000D01*
G01D02*
Y30307300D01*
G01X18968700Y30226000D02*
X19050000D01*
G01D02*
X19131300D01*
G01X19812000Y30154550D02*
Y30229500D01*
G01D02*
Y30304450D01*
G01X19761180Y30229500D02*
X19812000D01*
G01D02*
X19862820D01*
G01X20129500Y28557200D02*
Y28638500D01*
G01D02*
Y28719800D01*
G01X20048200Y28638500D02*
X20129500D01*
G01D02*
X20210800D01*
G01X20099000Y28877240D02*
Y28956000D01*
G01D02*
Y29034760D01*
G01X20035480Y28956000D02*
X20099000D01*
G01D02*
X20162520D01*
G01X20764500Y31224200D02*
Y31305500D01*
G01D02*
Y31386800D01*
G01X20683200Y31305500D02*
X20764500D01*
G01D02*
X20845800D01*
G01X21588000Y29577010D02*
Y29640290D01*
G01D02*
Y29703570D01*
G01X21538000Y29097430D02*
Y29160710D01*
G01D02*
Y29223990D01*
G01X21438000Y29097430D02*
Y29160710D01*
G01D02*
Y29223990D01*
G01X21526500Y30335200D02*
Y30416500D01*
G01D02*
Y30497800D01*
G01X21445200Y30416500D02*
X21526500D01*
G01D02*
X21607800D01*
G01X21533500Y30644400D02*
Y30776500D01*
G01D02*
Y30908600D01*
G01X21469980Y30776500D02*
X21533500D01*
G01D02*
X21597020D01*
G01X22225000Y30335200D02*
Y30416500D01*
G01D02*
Y30497800D01*
G01X22143700Y30416500D02*
X22225000D01*
G01D02*
X22306300D01*
G01X22225000Y30017700D02*
Y30099000D01*
G01D02*
Y30180300D01*
G01X22143700Y30099000D02*
X22225000D01*
G01D02*
X22306300D01*
G01X22225000Y30652700D02*
Y30734000D01*
G01D02*
Y30815300D01*
G01X22143700Y30734000D02*
X22225000D01*
G01D02*
X22306300D01*
G54D12*
X18034000Y29210000D03*
X18974000D03*
X18504000D03*
G54D21*
X20129500Y28638500D03*
X20193000Y31115000D03*
Y30861000D03*
Y30607000D03*
X22225000Y29654500D03*
Y29400500D03*
G54D31*
G01X18038000Y28321000D02*
Y28698000D01*
X18034000Y28702000D01*
Y28740000D01*
X18504000Y29210000D01*
G01X17970500Y29706490D02*
X18353290D01*
X18428300Y29781500D01*
X18542000D01*
G01X17970500Y29706490D02*
Y29706500D01*
G01X18034000Y29210000D02*
Y29552160D01*
X17970500Y29615660D01*
Y29706490D01*
G01X18542000Y29994860D02*
X18428300D01*
X18382580Y29949140D01*
X18224500D01*
G01X17970500Y29856500D02*
Y29845000D01*
G01Y29856500D02*
Y30035500D01*
X18097500Y30162500D01*
X18224500D01*
G01X18183860Y30924500D02*
X18255010Y30995650D01*
Y31178500D01*
G01D02*
X18469000D01*
X18498000Y31149500D01*
G01X18255000Y31178500D02*
X18255010D01*
G01X18927000Y28321000D02*
X18923000Y28325000D01*
Y28500000D01*
X18998000Y28575000D01*
X19557500D01*
X19748500Y28766000D01*
G01X18542000Y29781500D02*
X18655700D01*
X18687200Y29750000D01*
X18823000D01*
G01X18542000Y29994860D02*
X18672220D01*
X18727080Y29940000D01*
X18823000D01*
G01X18836640Y30226000D02*
Y30044480D01*
X18823000Y30030840D01*
Y29940000D01*
G01X18836640Y30393640D02*
Y30226000D01*
G01X19348000Y30699500D02*
X18498000D01*
G01Y31149500D02*
X18498010Y31149490D01*
G01X18498000Y31149500D02*
X19348000D01*
G01X19367500Y29060140D02*
Y28829000D01*
G01X19685000Y29527500D02*
Y29714500D01*
G01X19431000Y29527500D02*
Y29714500D01*
G01X19558000D02*
Y29464000D01*
X19367500Y29273500D01*
G01X19748500Y29145990D02*
Y29146000D01*
G01X19812000Y29714490D02*
X19890510Y29793000D01*
X19838510Y29845000D01*
X19740510D01*
X19431000Y30154510D01*
Y30229500D01*
G01X19812000Y29714490D02*
Y29714500D01*
G01Y29714490D02*
Y29337000D01*
X19748500Y29273500D01*
Y29146000D01*
G01X19685000Y30229500D02*
Y30336850D01*
X19764650Y30416500D01*
X20129500D01*
X20193000Y30353000D01*
G01X19558000Y30229500D02*
X19685000D01*
G01X19431000Y30229510D02*
Y30229500D01*
G01X19685000Y30670500D02*
Y30965140D01*
G01X19348000Y30699500D02*
Y30703140D01*
X19430670Y30785810D01*
X19505670D01*
X19685000Y30965140D01*
G01Y31178500D02*
X20015800D01*
X20079300Y31115000D01*
X20193000D01*
G01X19348000Y31149500D02*
X19542300D01*
X19571300Y31178500D01*
X19685000D01*
G01X20193000Y28280360D02*
X20025360D01*
G01X20161500Y29373500D02*
X20002500D01*
G01X21844000Y28194000D02*
X21399500D01*
G01X22011640Y30947360D02*
X21930960D01*
X21890320Y30988000D01*
X21463000D01*
X21408500Y31042500D01*
Y31317500D01*
G54D13*
X17970500Y29706500D03*
Y29856500D03*
X20447000Y28119000D03*
Y28269000D03*
G54D22*
X20256500Y29173500D03*
X20161500Y29373500D03*
X20351500D03*
G54D23*
X21115000Y28638500D03*
X22065000D03*
G54D14*
X18224500Y30162500D03*
Y29949140D03*
X17970500Y30924500D03*
X18183860D03*
X19050000Y30226000D03*
X18836640D03*
X18542000Y29781500D03*
Y29994860D03*
X19367500Y29273500D03*
Y29060140D03*
X19685000Y31178500D03*
Y30965140D03*
X20193000Y28067000D03*
X20383500Y28638500D03*
X20193000Y28280360D03*
X20129500Y29654500D03*
X20342860D03*
X20193000Y30353000D03*
X20551140Y30289500D03*
Y29972000D03*
X21186140Y28194000D03*
X20764500Y30289500D03*
Y29972000D03*
X21313140Y30416500D03*
X20764500Y31092140D03*
Y31305500D03*
X21844000Y28194000D03*
X22057360D03*
X21399500D03*
X21526500Y30416500D03*
X22011640D03*
Y30099000D03*
X21463000Y29908500D03*
Y30121860D03*
X22011640Y30734000D03*
X22225000Y29146500D03*
Y30416500D03*
Y30099000D03*
Y30734000D03*
G54D24*
X21223210Y29225500D03*
Y29275500D03*
Y29325500D03*
Y29375500D03*
Y29425500D03*
Y29475500D03*
Y29525500D03*
Y29575500D03*
X21702790D03*
Y29525500D03*
Y29475500D03*
Y29425500D03*
Y29375500D03*
Y29325500D03*
Y29275500D03*
Y29225500D03*
G54D15*
X18255000Y31178500D03*
X17940000D03*
X20414000Y28956000D03*
X20099000D03*
G54D25*
X21288000Y29640290D03*
X21338000D03*
Y29160710D03*
X21288000D03*
X21388000Y29640290D03*
X21438000D03*
X21488000D03*
X21538000D03*
X21588000D03*
X21638000D03*
Y29160710D03*
X21588000D03*
X21538000D03*
X21488000D03*
X21438000D03*
X21388000D03*
G54D16*
X18823000Y29750000D03*
X19023000Y29845000D03*
X18823000Y29940000D03*
G54D26*
X21278500Y31289000D03*
G54D17*
X18836640Y30393640D03*
X19367500Y28829000D03*
X19685000Y29527500D03*
X19431000D03*
X19685000Y30670500D03*
X20025360Y28280360D03*
X20002500Y29373500D03*
X21387990Y28956000D03*
X21399500Y28003500D03*
X21487990Y28956000D03*
X21717000Y30121860D03*
X22011640Y30947360D03*
G54D18*
X18498000Y30699500D03*
Y31149500D03*
X19348000Y30699500D03*
Y31149500D03*
G54D27*
X21153500Y30776500D03*
X21278500D03*
X21408500Y31317500D03*
X21533500D03*
X21408500Y30776500D03*
X21533500D03*
G54D28*
G01X20193000Y28067000D02*
X20331660D01*
X20383660Y28119000D01*
X20447000D01*
G01X20414000Y28956000D02*
Y28755200D01*
X20383500Y28724700D01*
Y28638500D01*
G01X20256500Y29173500D02*
Y29039500D01*
X20340000Y28956000D01*
X20414000D01*
G01X20447000Y28269000D02*
X20629000D01*
X20701000Y28341000D01*
Y28936000D01*
X20721000Y28956000D01*
X21272500D01*
X21288000Y28971500D01*
Y29160710D01*
G01X20685500Y29225500D02*
X20637500Y29273500D01*
Y29571000D01*
X20554000Y29654500D01*
X20342860D01*
G01X20129500D02*
X20209060Y29574940D01*
Y29521020D01*
X20351500Y29378580D01*
Y29373500D01*
G01X20551140Y30289500D02*
Y30502860D01*
X20193000Y30861000D01*
G01X20551140Y29972000D02*
X20383500Y30139640D01*
Y30416500D01*
X20193000Y30607000D01*
G01Y31115000D02*
X20891500Y30416500D01*
X20935000D01*
X20955000Y30396500D01*
Y29609470D01*
X21188970Y29375500D01*
X21223210D01*
G01X21186140Y28194000D02*
Y28280200D01*
X21114990Y28351350D01*
Y28638500D01*
X21115000D01*
G01X21588000Y29160710D02*
Y28933710D01*
X21292790Y28638500D01*
X21115000D01*
G01X21313140Y30416500D02*
X21082000Y30185360D01*
Y29582470D01*
X21188970Y29475500D01*
X21223210D01*
G01Y29425500D02*
X21188970D01*
X21018500Y29595970D01*
Y30480000D01*
X20764500Y30734000D01*
Y31092140D01*
G01X21223210Y29275500D02*
X20889500D01*
X20764500Y29400500D01*
Y29972000D01*
G01X21223210Y29325500D02*
X21223200Y29325490D01*
X21155020D01*
X20891500Y29589010D01*
Y30269500D01*
X20871500Y30289500D01*
X20764500D01*
G01X20685500Y29225500D02*
X20685510Y29225490D01*
G01X21223210Y29225500D02*
X20685500D01*
G01X21278500Y30776500D02*
Y30537340D01*
X21313140Y30502700D01*
Y30416500D01*
G01X21438000Y29640290D02*
Y29708470D01*
X21438010Y29708480D01*
X21364990Y29781500D01*
X21336000D01*
X21316000Y29801500D01*
Y30101860D01*
X21336000Y30121860D01*
X21463000D01*
G01X20764500Y31092140D02*
X20912140D01*
X20955000Y31135000D01*
Y31476000D01*
X20975000Y31496000D01*
X21526500D01*
X21533500Y31489000D01*
Y31317500D01*
G01X22057360Y28194000D02*
Y28506550D01*
X22065010Y28514200D01*
Y28638500D01*
X22065000D01*
G01X21638000Y29160710D02*
Y28887710D01*
X21887210Y28638500D01*
X22065000D01*
G01X21488000Y29640290D02*
Y29708470D01*
X21463000Y29733470D01*
Y29908500D01*
G01X21702790Y29525500D02*
X21846000D01*
X22225000Y29146500D01*
G01X22049990Y29575510D02*
X22050000Y29575500D01*
G01D02*
X22225000Y29400500D01*
G01X21702790Y29575500D02*
X22050000D01*
G01X21638000Y29640290D02*
X21671940D01*
X21686150Y29654500D01*
X22225000D01*
G54D19*
X19748500Y28766000D03*
Y29146000D03*
G54D29*
G01X21399500Y28194000D02*
Y28003500D01*
G01X21388000Y29160710D02*
Y29024190D01*
X21387990Y29024180D01*
Y28956000D01*
G01X21488000Y29160710D02*
Y29024190D01*
X21487990Y29024180D01*
Y28956000D01*
G01X21717000Y30121860D02*
X21463000D01*
G01X22011640Y30734000D02*
Y30416500D01*
G01D02*
Y30099000D01*
G01Y30947360D02*
Y30734000D01*
M02*
