G04 ================== begin FILE IDENTIFICATION RECORD ==================*
G04 Layout Name:  C:/Users/kjwoo_/Desktop/project/allegro/PROJECT1.brd*
G04 Film Name:    Drill_Draw*
G04 File Format:  Gerber RS274X*
G04 File Origin:  Cadence Allegro 17.2-S007*
G04 Origin Date:  Wed Oct 09 16:55:20 2019*
G04 *
G04 Layer:  MANUFACTURING/NCLEGEND-1-2*
G04 Layer:  BOARD GEOMETRY/OUTLINE*
G04 Layer:  BOARD GEOMETRY/DIMENSION*
G04 *
G04 Offset:    (0.0000 0.0000)*
G04 Mirror:    No*
G04 Mode:      Positive*
G04 Rotation:  0*
G04 FullContactRelief:  No*
G04 UndefLineWidth:     0.2000*
G04 ================== end FILE IDENTIFICATION RECORD ====================*
%FSLAX55Y55*MOMM*%
%IR0*IPPOS*OFA0.00000B0.00000*MIA0B0*SFA1.00000B1.00000*%
%AMMACRO11*
1,1,.2,.1651,0.0*
20,1,.2,.1651,0.0,-.1651,0.0,0.0*
1,1,.2,-.1651,0.0*
1,1,.2,0.0,.1651*
20,1,.2,0.0,.1651,0.0,-.1651,0.0*
1,1,.2,0.0,-.1651*
%
%ADD11MACRO11*%
%AMMACRO10*
1,1,.2,.710169,-1.7145*
20,1,.2,.710169,-1.7145,-.710169,-1.7145,0.0*
1,1,.2,-.710169,-1.7145*
20,1,.2,-.710169,-1.7145,-1.7145,-.710169,0.0*
1,1,.2,-1.7145,-.710169*
20,1,.2,-1.7145,-.710169,-1.7145,.710169,0.0*
1,1,.2,-1.7145,.710169*
20,1,.2,-1.7145,.710169,-.710169,1.7145,0.0*
1,1,.2,-.710169,1.7145*
20,1,.2,-.710169,1.7145,.710169,1.7145,0.0*
1,1,.2,.710169,1.7145*
20,1,.2,.710169,1.7145,1.7145,.710169,0.0*
1,1,.2,1.7145,.710169*
20,1,.2,1.7145,.710169,1.7145,-.710169,0.0*
1,1,.2,1.7145,-.710169*
20,1,.2,1.7145,-.710169,.710169,-1.7145,0.0*
1,1,.2,.710169,-1.7145*
%
%ADD10MACRO10*%
%AMMACRO14*
1,1,.2,.2794,.2794*
20,1,.2,.2794,.2794,.2794,-.2794,0.0*
1,1,.2,.2794,-.2794*
20,1,.2,.2794,-.2794,-.2794,-.2794,0.0*
1,1,.2,-.2794,-.2794*
20,1,.2,-.2794,-.2794,-.2794,.2794,0.0*
1,1,.2,-.2794,.2794*
20,1,.2,-.2794,.2794,.2794,.2794,0.0*
1,1,.2,.2794,.2794*
%
%ADD14MACRO14*%
%AMMACRO13*
1,1,.2,.381,0.0*
20,1,.2,.381,0.0,.1905,.329956,0.0*
1,1,.2,.1905,.329956*
20,1,.2,.1905,.329956,-.1905,.329956,0.0*
1,1,.2,-.1905,.329956*
20,1,.2,-.1905,.329956,-.381,0.0,0.0*
1,1,.2,-.381,0.0*
20,1,.2,-.381,0.0,-.1905,-.329956,0.0*
1,1,.2,-.1905,-.329956*
20,1,.2,-.1905,-.329956,.1905,-.329956,0.0*
1,1,.2,.1905,-.329956*
20,1,.2,.1905,-.329956,.381,0.0,0.0*
1,1,.2,.381,0.0*
%
%ADD13MACRO13*%
%AMMACRO12*
1,1,.2,0.0,.4064*
20,1,.2,0.0,.4064,-.351953,.2032,0.0*
1,1,.2,-.351953,.2032*
20,1,.2,-.351953,.2032,-.351953,-.2032,0.0*
1,1,.2,-.351953,-.2032*
20,1,.2,-.351953,-.2032,0.0,-.4064,0.0*
1,1,.2,0.0,-.4064*
20,1,.2,0.0,-.4064,.351953,-.2032,0.0*
1,1,.2,.351953,-.2032*
20,1,.2,.351953,-.2032,.351953,.2032,0.0*
1,1,.2,.351953,.2032*
20,1,.2,.351953,.2032,0.0,.4064,0.0*
1,1,.2,0.0,.4064*
%
%ADD12MACRO12*%
%ADD15C,.2*%
G75*
%LPD*%
G75*
G54D10*
X6319010Y8917990D03*
X5969000Y9398000D03*
X6569000D03*
X15021730Y5302500D03*
G54D11*
X6540500Y6921500D03*
X6921500Y5651500D03*
X7493000Y6477000D03*
X7366000Y6540500D03*
X7620000Y6413500D03*
X6921500Y7493000D03*
X7175500Y8791500D03*
X8255000Y6032500D03*
X8128000Y6096000D03*
X8191500Y6731000D03*
X7747000Y6286500D03*
X8001000Y6159500D03*
X7874000Y6223000D03*
X9271000Y5969000D03*
X9525000D03*
X9573000Y10085000D03*
X11811000Y6731000D03*
X11557000Y6985000D03*
Y8572500D03*
X15021730Y7842500D03*
G54D12*
X6881000Y10085000D03*
X7643000D03*
X7389000D03*
X7135000D03*
X8303000Y5255000D03*
X8049000D03*
X7795000D03*
X8405000Y10085000D03*
X8151000D03*
X7897000D03*
X9065000Y5255000D03*
X8811000D03*
X8557000D03*
X9167000Y10085000D03*
X8913000D03*
X8659000D03*
X9573000Y5255000D03*
X9319000D03*
X9573000Y10085000D03*
X9827000D03*
X10647000Y5255000D03*
X10393000D03*
X10139000D03*
X10081000Y10085000D03*
X10335000D03*
X10589000D03*
X11409000Y5255000D03*
X11155000D03*
X10901000D03*
X10843000Y10085000D03*
X11097000D03*
X11351000D03*
X15021730Y5937500D03*
G54D13*
X9017000Y5969000D03*
X8763000D03*
X8509000D03*
Y6731000D03*
X8763000D03*
X9017000D03*
X9779000Y5969000D03*
X9525000D03*
X9271000D03*
Y6731000D03*
X9525000D03*
X9779000D03*
X10541000Y5969000D03*
X10287000D03*
X10033000D03*
Y6731000D03*
X10287000D03*
X10541000D03*
X11303000Y5969000D03*
X11049000D03*
X10795000D03*
Y6731000D03*
X11049000D03*
X11303000D03*
X11811000Y5969000D03*
X11557000D03*
Y6731000D03*
X11811000D03*
X15021730Y6572500D03*
G54D14*
X9456010Y7500000D03*
X9943990D03*
X15021730Y7207500D03*
G54D15*
G01X5000000Y5000000D02*
Y10340000D01*
X11860000D01*
Y9000000D01*
X12160000Y8700000D01*
Y5700000D01*
X11860000Y5400000D01*
Y5000000D01*
X5000000D01*
G01X13880000Y4985000D02*
Y10080000D01*
X26478400D01*
Y4985000D01*
X13880000D01*
G01Y5620000D02*
X26478400D01*
G01X13880000Y6255000D02*
X26478400D01*
G01X13880000Y7525000D02*
X26478400D01*
G01X13880000Y6890000D02*
X26478400D01*
G01X14159520Y8318750D02*
Y8636250D01*
X14309140D01*
G01X14254010Y8482800D02*
X14159520D01*
G01X14502050Y8636250D02*
X14596530D01*
G01X14549290D02*
Y8318750D01*
G01X14502050D02*
X14596530D01*
G01X14887870Y8477500D02*
X14966620D01*
Y8382250D01*
X14942990Y8350490D01*
X14915430Y8329330D01*
X14876060Y8318750D01*
X14836690Y8329330D01*
X14809130Y8350490D01*
X14785510Y8382250D01*
X14769760Y8419290D01*
X14761880Y8461620D01*
Y8498670D01*
X14769760Y8530410D01*
X14785510Y8567460D01*
X14809130Y8599210D01*
X14832750Y8620370D01*
X14864250Y8636250D01*
X14891810D01*
X14923300Y8625670D01*
X14946930Y8604500D01*
G01X15092600Y8636250D02*
Y8408710D01*
X15108340Y8361070D01*
X15139840Y8329330D01*
X15179210Y8318750D01*
X15218580Y8329330D01*
X15250080Y8361070D01*
X15265820Y8408710D01*
Y8636250D01*
G01X15415430Y8318750D02*
Y8636250D01*
X15513850D01*
X15545350Y8620370D01*
X15565040Y8599210D01*
X15572910Y8556870D01*
X15565040Y8514540D01*
X15541410Y8488090D01*
X15513850Y8472200D01*
X15415430D01*
G01X15513850D02*
X15572910Y8318750D01*
G01X15887870D02*
X15730390D01*
Y8636250D01*
X15887870D01*
G01X15824880Y8482800D02*
X15730390D01*
G01X13880000Y8160000D02*
X26478400D01*
G01X13880000Y8795000D02*
X26478400D01*
G01X13880000Y9430000D02*
X26478400D01*
G01X15828810Y8953750D02*
X15927240Y9271250D01*
X16025670Y8953750D01*
G01X15990230Y9064870D02*
X15864240D01*
G01X16163460Y9271250D02*
Y8953750D01*
X16320940D01*
G01X16478420Y9271250D02*
Y8953750D01*
X16635900D01*
G01X17100470Y9271250D02*
Y9043710D01*
X17116210Y8996070D01*
X17147710Y8964330D01*
X17187080Y8953750D01*
X17226450Y8964330D01*
X17257950Y8996070D01*
X17273690Y9043710D01*
Y9271250D01*
G01X17411490Y8953750D02*
Y9271250D01*
X17592590Y8953750D01*
Y9271250D01*
G01X17769760D02*
X17864240D01*
G01X17817000D02*
Y8953750D01*
G01X17769760D02*
X17864240D01*
G01X18131960Y9271250D02*
Y8953750D01*
G01X18041410Y9271250D02*
X18222510D01*
G01X18364240Y8996070D02*
X18395740Y8969620D01*
X18431170Y8953750D01*
X18462670D01*
X18494160Y8969620D01*
X18517790Y8996070D01*
X18529600Y9033130D01*
X18521730Y9070160D01*
X18502040Y9101910D01*
X18466600Y9123090D01*
X18419360Y9133670D01*
X18391800Y9154830D01*
X18379990Y9191870D01*
X18387870Y9228920D01*
X18407550Y9255370D01*
X18435110Y9271250D01*
X18462670D01*
X18490230Y9260670D01*
X18513850Y9234210D01*
G01X18978410Y8953750D02*
X19076840Y9271250D01*
X19175270Y8953750D01*
G01X19139830Y9064870D02*
X19013840D01*
G01X19313060Y8953750D02*
Y9271250D01*
X19411480D01*
X19442980Y9255370D01*
X19462670Y9234210D01*
X19470540Y9191870D01*
X19462670Y9149540D01*
X19439040Y9123090D01*
X19411480Y9107200D01*
X19313060D01*
G01X19411480D02*
X19470540Y8953750D01*
G01X19785500D02*
X19628020D01*
Y9271250D01*
X19785500D01*
G01X19722510Y9117800D02*
X19628020D01*
G01X20289440Y9271250D02*
X20383920D01*
G01X20336680D02*
Y8953750D01*
G01X20289440D02*
X20383920D01*
G01X20561090D02*
Y9271250D01*
X20742190Y8953750D01*
Y9271250D01*
G01X21179190Y8953750D02*
Y9271250D01*
X21281560Y9006670D01*
X21383930Y9271250D01*
Y8953750D01*
G01X21549280Y9271250D02*
X21643760D01*
G01X21596520D02*
Y8953750D01*
G01X21549280D02*
X21643760D01*
G01X21832740Y9271250D02*
Y8953750D01*
X21990220D01*
G01X22147700Y9271250D02*
Y8953750D01*
X22305180D01*
G01X22494160Y9271250D02*
X22588640D01*
G01X22541400D02*
Y8953750D01*
G01X22494160D02*
X22588640D01*
G01X22753990D02*
Y9271250D01*
X22856360Y9006670D01*
X22958730Y9271250D01*
Y8953750D01*
G01X23250060D02*
X23092580D01*
Y9271250D01*
X23250060D01*
G01X23187070Y9117800D02*
X23092580D01*
G01X23486280Y9271250D02*
Y8953750D01*
G01X23395730Y9271250D02*
X23576830D01*
G01X23879980Y8953750D02*
X23722500D01*
Y9271250D01*
X23879980D01*
G01X23816990Y9117800D02*
X23722500D01*
G01X24037460Y8953750D02*
Y9271250D01*
X24135880D01*
X24167380Y9255370D01*
X24187070Y9234210D01*
X24194940Y9191870D01*
X24187070Y9149540D01*
X24163440Y9123090D01*
X24135880Y9107200D01*
X24037460D01*
G01X24135880D02*
X24194940Y8953750D01*
G01X24348480Y8996070D02*
X24379980Y8969620D01*
X24415410Y8953750D01*
X24446910D01*
X24478400Y8969620D01*
X24502030Y8996070D01*
X24513840Y9033130D01*
X24505970Y9070160D01*
X24486280Y9101910D01*
X24450840Y9123090D01*
X24403600Y9133670D01*
X24376040Y9154830D01*
X24364230Y9191870D01*
X24372110Y9228920D01*
X24391790Y9255370D01*
X24419350Y9271250D01*
X24446910D01*
X24474470Y9260670D01*
X24498090Y9234210D01*
G01X16163460Y8795000D02*
Y4985000D01*
G01X16757940Y8318750D02*
Y8636250D01*
X16907560D01*
G01X16852430Y8482800D02*
X16757940D01*
G01X17100470Y8636250D02*
X17194950D01*
G01X17147710D02*
Y8318750D01*
G01X17100470D02*
X17194950D01*
G01X17372120D02*
Y8636250D01*
X17553220Y8318750D01*
Y8636250D01*
G01X17730390D02*
X17824870D01*
G01X17777630D02*
Y8318750D01*
G01X17730390D02*
X17824870D01*
G01X18009910Y8361070D02*
X18041410Y8334620D01*
X18076840Y8318750D01*
X18108340D01*
X18139830Y8334620D01*
X18163460Y8361070D01*
X18175270Y8398130D01*
X18167400Y8435160D01*
X18147710Y8466910D01*
X18112270Y8488090D01*
X18065030Y8498670D01*
X18037470Y8519830D01*
X18025660Y8556870D01*
X18033540Y8593920D01*
X18053220Y8620370D01*
X18080780Y8636250D01*
X18108340D01*
X18135900Y8625670D01*
X18159520Y8599210D01*
G01X18324870Y8318750D02*
Y8636250D01*
G01X18490230D02*
Y8318750D01*
G01Y8477500D02*
X18324870D01*
G01X18801250Y8318750D02*
X18643770D01*
Y8636250D01*
X18801250D01*
G01X18738260Y8482800D02*
X18643770D01*
G01X18950860Y8318750D02*
Y8636250D01*
X19029590D01*
X19061090Y8620370D01*
X19084710Y8599210D01*
X19104400Y8567460D01*
X19120150Y8530410D01*
X19124080Y8477500D01*
X19120150Y8424580D01*
X19104400Y8387540D01*
X19084710Y8355780D01*
X19061090Y8334620D01*
X19029590Y8318750D01*
X18950860D01*
G01X19234320Y8212920D02*
X19470540D01*
G01X19584710Y8361070D02*
X19616210Y8334620D01*
X19651640Y8318750D01*
X19683140D01*
X19714630Y8334620D01*
X19738260Y8361070D01*
X19750070Y8398130D01*
X19742200Y8435160D01*
X19722510Y8466910D01*
X19687070Y8488090D01*
X19639830Y8498670D01*
X19612270Y8519830D01*
X19600460Y8556870D01*
X19608340Y8593920D01*
X19628020Y8620370D01*
X19655580Y8636250D01*
X19683140D01*
X19710700Y8625670D01*
X19734320Y8599210D01*
G01X19935110Y8636250D02*
X20029590D01*
G01X19982350D02*
Y8318750D01*
G01X19935110D02*
X20029590D01*
G01X20222500Y8636250D02*
X20372120D01*
X20222500Y8318750D01*
X20372120D01*
G01X20691010D02*
X20533530D01*
Y8636250D01*
X20691010D01*
G01X20628020Y8482800D02*
X20533530D01*
G01X16155590Y9603750D02*
Y9921250D01*
X16234320D01*
X16265820Y9905370D01*
X16289440Y9884210D01*
X16309130Y9852460D01*
X16324880Y9815410D01*
X16328810Y9762500D01*
X16324880Y9709580D01*
X16309130Y9672540D01*
X16289440Y9640780D01*
X16265820Y9619620D01*
X16234320Y9603750D01*
X16155590D01*
G01X16478420D02*
Y9921250D01*
X16576840D01*
X16608340Y9905370D01*
X16628030Y9884210D01*
X16635900Y9841870D01*
X16628030Y9799540D01*
X16604400Y9773090D01*
X16576840Y9757200D01*
X16478420D01*
G01X16576840D02*
X16635900Y9603750D01*
G01X16824880Y9921250D02*
X16919360D01*
G01X16872120D02*
Y9603750D01*
G01X16824880D02*
X16919360D01*
G01X17108340Y9921250D02*
Y9603750D01*
X17265820D01*
G01X17423300Y9921250D02*
Y9603750D01*
X17580780D01*
G01X18218570Y9894790D02*
X18194950Y9910670D01*
X18167400Y9921250D01*
X18135900D01*
X18100460Y9905370D01*
X18072910Y9878920D01*
X18053220Y9847160D01*
X18037470Y9794250D01*
X18033530Y9746620D01*
X18041410Y9699000D01*
X18053220Y9667250D01*
X18076840Y9635490D01*
X18104400Y9614330D01*
X18131960Y9603750D01*
X18159520D01*
X18187080Y9614330D01*
X18210700Y9630200D01*
X18230390Y9651360D01*
G01X18364240Y9603750D02*
Y9921250D01*
G01X18529600D02*
Y9603750D01*
G01Y9762500D02*
X18364240D01*
G01X18663450Y9603750D02*
X18761880Y9921250D01*
X18860310Y9603750D01*
G01X18824870Y9714870D02*
X18698880D01*
G01X18998100Y9603750D02*
Y9921250D01*
X19096520D01*
X19128020Y9905370D01*
X19147710Y9884210D01*
X19155580Y9841870D01*
X19147710Y9799540D01*
X19124080Y9773090D01*
X19096520Y9757200D01*
X18998100D01*
G01X19096520D02*
X19155580Y9603750D01*
G01X19391800Y9921250D02*
Y9603750D01*
G01X19301250Y9921250D02*
X19482350D01*
G01X19706760Y9593170D02*
X19698880Y9598460D01*
Y9609040D01*
X19706760Y9614330D01*
X19714640Y9609040D01*
Y9598460D01*
X19706760Y9593170D01*
G01Y9736030D02*
X19698880Y9741330D01*
Y9751910D01*
X19706760Y9757200D01*
X19714640Y9751910D01*
Y9741330D01*
X19706760Y9736030D01*
G01X20336680Y9921250D02*
Y9603750D01*
G01X20246130Y9921250D02*
X20427230D01*
G01X20651640Y9603750D02*
X20620140Y9609040D01*
X20592590Y9630200D01*
X20568960Y9661960D01*
X20553210Y9699000D01*
X20545340Y9741330D01*
Y9783670D01*
X20553210Y9826000D01*
X20568960Y9863040D01*
X20592590Y9894790D01*
X20620140Y9915960D01*
X20651640Y9921250D01*
X20683130Y9915960D01*
X20710690Y9894790D01*
X20734320Y9863040D01*
X20750070Y9826000D01*
X20757940Y9783670D01*
Y9741330D01*
X20750070Y9699000D01*
X20734320Y9661960D01*
X20710690Y9630200D01*
X20683130Y9609040D01*
X20651640Y9603750D01*
G01X20887860D02*
Y9921250D01*
X20982350D01*
X21013840Y9905370D01*
X21037470Y9868330D01*
X21045340Y9826000D01*
X21037470Y9783670D01*
X21017780Y9751910D01*
X20982350Y9736030D01*
X20887860D01*
G01X21596520Y9921250D02*
Y9603750D01*
G01X21541400Y9815410D02*
X21651640D01*
G01X21911480Y9603750D02*
X21887860Y9609040D01*
X21864240Y9630200D01*
X21848480Y9667250D01*
X21840610Y9709580D01*
X21848480Y9751910D01*
X21864240Y9788960D01*
X21887860Y9810120D01*
X21911480Y9815410D01*
X21935100Y9810120D01*
X21958720Y9788960D01*
X21974470Y9751910D01*
X21978410Y9709580D01*
X21974470Y9667250D01*
X21958720Y9630200D01*
X21935100Y9609040D01*
X21911480Y9603750D01*
G01X22572890Y9773090D02*
X22588640Y9788960D01*
X22600450Y9815410D01*
X22608330Y9852460D01*
X22600450Y9884210D01*
X22584710Y9905370D01*
X22557150Y9921250D01*
X22450850D01*
Y9603750D01*
X22580770D01*
X22608330Y9624910D01*
X22624080Y9656670D01*
X22631950Y9693710D01*
X22624080Y9730740D01*
X22600450Y9762500D01*
X22572890Y9773090D01*
X22450850D01*
G01X22856360Y9603750D02*
X22824860Y9609040D01*
X22797310Y9630200D01*
X22773680Y9661960D01*
X22757930Y9699000D01*
X22750060Y9741330D01*
Y9783670D01*
X22757930Y9826000D01*
X22773680Y9863040D01*
X22797310Y9894790D01*
X22824860Y9915960D01*
X22856360Y9921250D01*
X22887850Y9915960D01*
X22915410Y9894790D01*
X22939040Y9863040D01*
X22954790Y9826000D01*
X22962660Y9783670D01*
Y9741330D01*
X22954790Y9699000D01*
X22939040Y9661960D01*
X22915410Y9630200D01*
X22887850Y9609040D01*
X22856360Y9603750D01*
G01X23171320Y9921250D02*
Y9603750D01*
G01X23080770Y9921250D02*
X23261870D01*
G01X23486280D02*
Y9603750D01*
G01X23395730Y9921250D02*
X23576830D01*
G01X23801240Y9603750D02*
X23769740Y9609040D01*
X23742190Y9630200D01*
X23718560Y9661960D01*
X23702810Y9699000D01*
X23694940Y9741330D01*
Y9783670D01*
X23702810Y9826000D01*
X23718560Y9863040D01*
X23742190Y9894790D01*
X23769740Y9915960D01*
X23801240Y9921250D01*
X23832730Y9915960D01*
X23860290Y9894790D01*
X23883920Y9863040D01*
X23899670Y9826000D01*
X23907540Y9783670D01*
Y9741330D01*
X23899670Y9699000D01*
X23883920Y9661960D01*
X23860290Y9630200D01*
X23832730Y9609040D01*
X23801240Y9603750D01*
G01X24013830D02*
Y9921250D01*
X24116200Y9656670D01*
X24218570Y9921250D01*
Y9603750D01*
G01X18005980Y5207250D02*
X18029590Y5170200D01*
X18061090Y5149040D01*
X18096530Y5143750D01*
X18128030Y5149040D01*
X18159520Y5175490D01*
X18179200Y5207250D01*
X18183140Y5239000D01*
X18175270Y5276030D01*
X18147710Y5302500D01*
X18120150Y5313090D01*
X18084710D01*
G01X18120150D02*
X18143770Y5328960D01*
X18163460Y5355410D01*
X18171330Y5387160D01*
X18163460Y5418920D01*
X18143770Y5445370D01*
X18108340Y5461250D01*
X18072910Y5455960D01*
X18037470Y5434790D01*
G01X18407550Y5133170D02*
X18399670Y5138460D01*
Y5149040D01*
X18407550Y5154330D01*
X18415430Y5149040D01*
Y5138460D01*
X18407550Y5133170D01*
G01X18769750Y5143750D02*
Y5461250D01*
X18624080Y5233710D01*
X18820940D01*
G01X18962660Y5408330D02*
X18986290Y5440080D01*
X19013850Y5455960D01*
X19045350Y5461250D01*
X19084710Y5450670D01*
X19112280Y5424210D01*
X19120150Y5392460D01*
X19116210Y5360700D01*
X19100460Y5334250D01*
X19021720Y5281330D01*
X18986290Y5244290D01*
X18962660Y5191360D01*
X18954790Y5143750D01*
X19120150D01*
G01X19285500Y5180780D02*
X19313060Y5154330D01*
X19344550Y5143750D01*
X19376050Y5154330D01*
X19403610Y5186070D01*
X19423300Y5233710D01*
X19431170Y5281330D01*
Y5339540D01*
X19423300Y5387160D01*
X19403610Y5429500D01*
X19379990Y5450670D01*
X19352430Y5461250D01*
X19320930Y5450670D01*
X19297310Y5429500D01*
X19281560Y5397750D01*
X19273690Y5355410D01*
X19281560Y5318380D01*
X19301250Y5281330D01*
X19324870Y5260160D01*
X19352430Y5254870D01*
X19383920Y5265450D01*
X19407550Y5291910D01*
X19431170Y5339540D01*
G01X17935110Y6096250D02*
X17903610Y6085670D01*
X17879990Y6059210D01*
X17864240Y6027460D01*
X17852430Y5985120D01*
X17848500Y5937500D01*
X17852430Y5889870D01*
X17864240Y5847540D01*
X17879990Y5815780D01*
X17903610Y5789330D01*
X17935110Y5778750D01*
X17966600Y5789330D01*
X17990230Y5815780D01*
X18005980Y5847540D01*
X18017790Y5889870D01*
X18021720Y5937500D01*
X18017790Y5985120D01*
X18005980Y6027460D01*
X17990230Y6059210D01*
X17966600Y6085670D01*
X17935110Y6096250D01*
G01X18250070Y5768170D02*
X18242190Y5773460D01*
Y5784040D01*
X18250070Y5789330D01*
X18257950Y5784040D01*
Y5773460D01*
X18250070Y5768170D01*
G01X18565030Y5778750D02*
X18592590Y5784040D01*
X18624080Y5799910D01*
X18643770Y5826360D01*
X18651640Y5863420D01*
X18643770Y5900450D01*
X18620150Y5932200D01*
X18584710Y5948090D01*
X18545350D01*
X18521720Y5958670D01*
X18502030Y5985120D01*
X18494160Y6022160D01*
X18505980Y6059210D01*
X18533530Y6085670D01*
X18565030Y6096250D01*
X18596520Y6085670D01*
X18624080Y6059210D01*
X18635900Y6022160D01*
X18628020Y5985120D01*
X18608340Y5958670D01*
X18584710Y5948090D01*
X18545350D01*
X18509910Y5932200D01*
X18486290Y5900450D01*
X18478420Y5863420D01*
X18486290Y5826360D01*
X18505980Y5799910D01*
X18537470Y5784040D01*
X18565030Y5778750D01*
G01X18879990D02*
Y6096250D01*
X18832750Y6032750D01*
G01Y5778750D02*
X18927230D01*
G01X19120140Y6043330D02*
X19143770Y6075080D01*
X19171330Y6090960D01*
X19202830Y6096250D01*
X19242190Y6085670D01*
X19269760Y6059210D01*
X19277630Y6027460D01*
X19273690Y5995700D01*
X19257940Y5969250D01*
X19179200Y5916330D01*
X19143770Y5879290D01*
X19120140Y5826360D01*
X19112270Y5778750D01*
X19277630D01*
G01X19509910D02*
X19537470Y5784040D01*
X19568960Y5799910D01*
X19588650Y5826360D01*
X19596520Y5863420D01*
X19588650Y5900450D01*
X19565030Y5932200D01*
X19529590Y5948090D01*
X19490230D01*
X19466600Y5958670D01*
X19446910Y5985120D01*
X19439040Y6022160D01*
X19450860Y6059210D01*
X19478410Y6085670D01*
X19509910Y6096250D01*
X19541400Y6085670D01*
X19568960Y6059210D01*
X19580780Y6022160D01*
X19572900Y5985120D01*
X19553220Y5958670D01*
X19529590Y5948090D01*
X19490230D01*
X19454790Y5932200D01*
X19431170Y5900450D01*
X19423300Y5863420D01*
X19431170Y5826360D01*
X19450860Y5799910D01*
X19482350Y5784040D01*
X19509910Y5778750D01*
G01X18092590Y6731250D02*
X18061090Y6720670D01*
X18037470Y6694210D01*
X18021720Y6662460D01*
X18009910Y6620120D01*
X18005980Y6572500D01*
X18009910Y6524870D01*
X18021720Y6482540D01*
X18037470Y6450780D01*
X18061090Y6424330D01*
X18092590Y6413750D01*
X18124080Y6424330D01*
X18147710Y6450780D01*
X18163460Y6482540D01*
X18175270Y6524870D01*
X18179200Y6572500D01*
X18175270Y6620120D01*
X18163460Y6662460D01*
X18147710Y6694210D01*
X18124080Y6720670D01*
X18092590Y6731250D01*
G01X18407550Y6403170D02*
X18399670Y6408460D01*
Y6419040D01*
X18407550Y6424330D01*
X18415430Y6419040D01*
Y6408460D01*
X18407550Y6403170D01*
G01X18714630Y6413750D02*
X18722510Y6482540D01*
X18734320Y6540740D01*
X18750070Y6593670D01*
X18769750Y6651870D01*
X18801250Y6731250D01*
X18643770D01*
G01X18962660Y6546030D02*
X18990230Y6583090D01*
X19013850Y6604250D01*
X19045350Y6614830D01*
X19072910Y6604250D01*
X19092590Y6583090D01*
X19108340Y6551330D01*
X19112280Y6514290D01*
X19108340Y6482540D01*
X19092590Y6450780D01*
X19068960Y6424330D01*
X19041410Y6413750D01*
X19009910Y6424330D01*
X18982350Y6456070D01*
X18966600Y6503710D01*
X18962660Y6556620D01*
X18970540Y6625410D01*
X18982350Y6662460D01*
X19002030Y6699500D01*
X19029590Y6725960D01*
X19057150Y6731250D01*
X19084710Y6720670D01*
X19104400Y6694210D01*
G01X19277620Y6678330D02*
X19301250Y6710080D01*
X19328810Y6725960D01*
X19360310Y6731250D01*
X19399670Y6720670D01*
X19427240Y6694210D01*
X19435110Y6662460D01*
X19431170Y6630700D01*
X19415420Y6604250D01*
X19336680Y6551330D01*
X19301250Y6514290D01*
X19277620Y6461360D01*
X19269750Y6413750D01*
X19435110D01*
G01X17935110Y8001250D02*
X17903610Y7990670D01*
X17879990Y7964210D01*
X17864240Y7932460D01*
X17852430Y7890120D01*
X17848500Y7842500D01*
X17852430Y7794870D01*
X17864240Y7752540D01*
X17879990Y7720780D01*
X17903610Y7694330D01*
X17935110Y7683750D01*
X17966600Y7694330D01*
X17990230Y7720780D01*
X18005980Y7752540D01*
X18017790Y7794870D01*
X18021720Y7842500D01*
X18017790Y7890120D01*
X18005980Y7932460D01*
X17990230Y7964210D01*
X17966600Y7990670D01*
X17935110Y8001250D01*
G01X18250070Y7673170D02*
X18242190Y7678460D01*
Y7689040D01*
X18250070Y7694330D01*
X18257950Y7689040D01*
Y7678460D01*
X18250070Y7673170D01*
G01X18478420Y7747250D02*
X18502030Y7710200D01*
X18533530Y7689040D01*
X18568970Y7683750D01*
X18600470Y7689040D01*
X18631960Y7715490D01*
X18651640Y7747250D01*
X18655580Y7779000D01*
X18647710Y7816030D01*
X18620150Y7842500D01*
X18592590Y7853090D01*
X18557150D01*
G01X18592590D02*
X18616210Y7868960D01*
X18635900Y7895410D01*
X18643770Y7927160D01*
X18635900Y7958920D01*
X18616210Y7985370D01*
X18580780Y8001250D01*
X18545350Y7995960D01*
X18509910Y7974790D01*
G01X18793380Y7747250D02*
X18816990Y7710200D01*
X18848490Y7689040D01*
X18883930Y7683750D01*
X18915430Y7689040D01*
X18946920Y7715490D01*
X18966600Y7747250D01*
X18970540Y7779000D01*
X18962670Y7816030D01*
X18935110Y7842500D01*
X18907550Y7853090D01*
X18872110D01*
G01X18907550D02*
X18931170Y7868960D01*
X18950860Y7895410D01*
X18958730Y7927160D01*
X18950860Y7958920D01*
X18931170Y7985370D01*
X18895740Y8001250D01*
X18860310Y7995960D01*
X18824870Y7974790D01*
G01X19194950Y8001250D02*
X19163450Y7990670D01*
X19139830Y7964210D01*
X19124080Y7932460D01*
X19112270Y7890120D01*
X19108340Y7842500D01*
X19112270Y7794870D01*
X19124080Y7752540D01*
X19139830Y7720780D01*
X19163450Y7694330D01*
X19194950Y7683750D01*
X19226440Y7694330D01*
X19250070Y7720780D01*
X19265820Y7752540D01*
X19277630Y7794870D01*
X19281560Y7842500D01*
X19277630Y7890120D01*
X19265820Y7932460D01*
X19250070Y7964210D01*
X19226440Y7990670D01*
X19194950Y8001250D01*
G01X19435100Y7948330D02*
X19458730Y7980080D01*
X19486290Y7995960D01*
X19517790Y8001250D01*
X19557150Y7990670D01*
X19584720Y7964210D01*
X19592590Y7932460D01*
X19588650Y7900700D01*
X19572900Y7874250D01*
X19494160Y7821330D01*
X19458730Y7784290D01*
X19435100Y7731360D01*
X19427230Y7683750D01*
X19592590D01*
G01X17935110Y7366250D02*
X17903610Y7355670D01*
X17879990Y7329210D01*
X17864240Y7297460D01*
X17852430Y7255120D01*
X17848500Y7207500D01*
X17852430Y7159870D01*
X17864240Y7117540D01*
X17879990Y7085780D01*
X17903610Y7059330D01*
X17935110Y7048750D01*
X17966600Y7059330D01*
X17990230Y7085780D01*
X18005980Y7117540D01*
X18017790Y7159870D01*
X18021720Y7207500D01*
X18017790Y7255120D01*
X18005980Y7297460D01*
X17990230Y7329210D01*
X17966600Y7355670D01*
X17935110Y7366250D01*
G01X18250070Y7038170D02*
X18242190Y7043460D01*
Y7054040D01*
X18250070Y7059330D01*
X18257950Y7054040D01*
Y7043460D01*
X18250070Y7038170D01*
G01X18478420Y7096360D02*
X18502030Y7069910D01*
X18529590Y7054040D01*
X18565030Y7048750D01*
X18600470Y7059330D01*
X18628020Y7080490D01*
X18647710Y7117540D01*
X18651640Y7159870D01*
X18643770Y7202200D01*
X18624080Y7228670D01*
X18596520Y7249830D01*
X18568970Y7255120D01*
X18541410Y7249830D01*
X18505980Y7228670D01*
X18517790Y7366250D01*
X18624080D01*
G01X18793380Y7096360D02*
X18816990Y7069910D01*
X18844550Y7054040D01*
X18879990Y7048750D01*
X18915430Y7059330D01*
X18942980Y7080490D01*
X18962670Y7117540D01*
X18966600Y7159870D01*
X18958730Y7202200D01*
X18939040Y7228670D01*
X18911480Y7249830D01*
X18883930Y7255120D01*
X18856370Y7249830D01*
X18820940Y7228670D01*
X18832750Y7366250D01*
X18939040D01*
G01X19194950Y7048750D02*
X19222510Y7054040D01*
X19254000Y7069910D01*
X19273690Y7096360D01*
X19281560Y7133420D01*
X19273690Y7170450D01*
X19250070Y7202200D01*
X19214630Y7218090D01*
X19175270D01*
X19151640Y7228670D01*
X19131950Y7255120D01*
X19124080Y7292160D01*
X19135900Y7329210D01*
X19163450Y7355670D01*
X19194950Y7366250D01*
X19226440Y7355670D01*
X19254000Y7329210D01*
X19265820Y7292160D01*
X19257940Y7255120D01*
X19238260Y7228670D01*
X19214630Y7218090D01*
X19175270D01*
X19139830Y7202200D01*
X19116210Y7170450D01*
X19108340Y7133420D01*
X19116210Y7096360D01*
X19135900Y7069910D01*
X19167390Y7054040D01*
X19194950Y7048750D01*
G01X19509910D02*
X19537470Y7054040D01*
X19568960Y7069910D01*
X19588650Y7096360D01*
X19596520Y7133420D01*
X19588650Y7170450D01*
X19565030Y7202200D01*
X19529590Y7218090D01*
X19490230D01*
X19466600Y7228670D01*
X19446910Y7255120D01*
X19439040Y7292160D01*
X19450860Y7329210D01*
X19478410Y7355670D01*
X19509910Y7366250D01*
X19541400Y7355670D01*
X19568960Y7329210D01*
X19580780Y7292160D01*
X19572900Y7255120D01*
X19553220Y7228670D01*
X19529590Y7218090D01*
X19490230D01*
X19454790Y7202200D01*
X19431170Y7170450D01*
X19423300Y7133420D01*
X19431170Y7096360D01*
X19450860Y7069910D01*
X19482350Y7054040D01*
X19509910Y7048750D01*
G01X21281560Y8795000D02*
Y4985000D01*
G01X22029590Y5143750D02*
Y5461250D01*
X22124080D01*
X22155570Y5445370D01*
X22179200Y5408330D01*
X22187070Y5366000D01*
X22179200Y5323670D01*
X22159510Y5291910D01*
X22124080Y5276030D01*
X22029590D01*
G01X22344550Y5461250D02*
Y5143750D01*
X22502030D01*
G01X22639820D02*
X22738250Y5461250D01*
X22836680Y5143750D01*
G01X22801240Y5254870D02*
X22675250D01*
G01X23053210Y5461250D02*
Y5143750D01*
G01X22962660Y5461250D02*
X23143760D01*
G01X23446910Y5143750D02*
X23289430D01*
Y5461250D01*
X23446910D01*
G01X23383920Y5307800D02*
X23289430D01*
G01X23596520Y5143750D02*
Y5461250D01*
X23675250D01*
X23706750Y5445370D01*
X23730370Y5424210D01*
X23750060Y5392460D01*
X23765810Y5355410D01*
X23769740Y5302500D01*
X23765810Y5249580D01*
X23750060Y5212540D01*
X23730370Y5180780D01*
X23706750Y5159620D01*
X23675250Y5143750D01*
X23596520D01*
G01X22029590Y5778750D02*
Y6096250D01*
X22124080D01*
X22155570Y6080370D01*
X22179200Y6043330D01*
X22187070Y6001000D01*
X22179200Y5958670D01*
X22159510Y5926910D01*
X22124080Y5911030D01*
X22029590D01*
G01X22344550Y6096250D02*
Y5778750D01*
X22502030D01*
G01X22639820D02*
X22738250Y6096250D01*
X22836680Y5778750D01*
G01X22801240Y5889870D02*
X22675250D01*
G01X23053210Y6096250D02*
Y5778750D01*
G01X22962660Y6096250D02*
X23143760D01*
G01X23446910Y5778750D02*
X23289430D01*
Y6096250D01*
X23446910D01*
G01X23383920Y5942800D02*
X23289430D01*
G01X23596520Y5778750D02*
Y6096250D01*
X23675250D01*
X23706750Y6080370D01*
X23730370Y6059210D01*
X23750060Y6027460D01*
X23765810Y5990410D01*
X23769740Y5937500D01*
X23765810Y5884580D01*
X23750060Y5847540D01*
X23730370Y5815780D01*
X23706750Y5794620D01*
X23675250Y5778750D01*
X23596520D01*
G01X22029590Y6413750D02*
Y6731250D01*
X22124080D01*
X22155570Y6715370D01*
X22179200Y6678330D01*
X22187070Y6636000D01*
X22179200Y6593670D01*
X22159510Y6561910D01*
X22124080Y6546030D01*
X22029590D01*
G01X22344550Y6731250D02*
Y6413750D01*
X22502030D01*
G01X22639820D02*
X22738250Y6731250D01*
X22836680Y6413750D01*
G01X22801240Y6524870D02*
X22675250D01*
G01X23053210Y6731250D02*
Y6413750D01*
G01X22962660Y6731250D02*
X23143760D01*
G01X23446910Y6413750D02*
X23289430D01*
Y6731250D01*
X23446910D01*
G01X23383920Y6577800D02*
X23289430D01*
G01X23596520Y6413750D02*
Y6731250D01*
X23675250D01*
X23706750Y6715370D01*
X23730370Y6694210D01*
X23750060Y6662460D01*
X23765810Y6625410D01*
X23769740Y6572500D01*
X23765810Y6519580D01*
X23750060Y6482540D01*
X23730370Y6450780D01*
X23706750Y6429620D01*
X23675250Y6413750D01*
X23596520D01*
G01X22029590Y7683750D02*
Y8001250D01*
X22124080D01*
X22155570Y7985370D01*
X22179200Y7948330D01*
X22187070Y7906000D01*
X22179200Y7863670D01*
X22159510Y7831910D01*
X22124080Y7816030D01*
X22029590D01*
G01X22344550Y8001250D02*
Y7683750D01*
X22502030D01*
G01X22639820D02*
X22738250Y8001250D01*
X22836680Y7683750D01*
G01X22801240Y7794870D02*
X22675250D01*
G01X23053210Y8001250D02*
Y7683750D01*
G01X22962660Y8001250D02*
X23143760D01*
G01X23446910Y7683750D02*
X23289430D01*
Y8001250D01*
X23446910D01*
G01X23383920Y7847800D02*
X23289430D01*
G01X23596520Y7683750D02*
Y8001250D01*
X23675250D01*
X23706750Y7985370D01*
X23730370Y7964210D01*
X23750060Y7932460D01*
X23765810Y7895410D01*
X23769740Y7842500D01*
X23765810Y7789580D01*
X23750060Y7752540D01*
X23730370Y7720780D01*
X23706750Y7699620D01*
X23675250Y7683750D01*
X23596520D01*
G01X22029590Y7048750D02*
Y7366250D01*
X22124080D01*
X22155570Y7350370D01*
X22179200Y7313330D01*
X22187070Y7271000D01*
X22179200Y7228670D01*
X22159510Y7196910D01*
X22124080Y7181030D01*
X22029590D01*
G01X22344550Y7366250D02*
Y7048750D01*
X22502030D01*
G01X22639820D02*
X22738250Y7366250D01*
X22836680Y7048750D01*
G01X22801240Y7159870D02*
X22675250D01*
G01X23053210Y7366250D02*
Y7048750D01*
G01X22962660Y7366250D02*
X23143760D01*
G01X23446910Y7048750D02*
X23289430D01*
Y7366250D01*
X23446910D01*
G01X23383920Y7212800D02*
X23289430D01*
G01X23596520Y7048750D02*
Y7366250D01*
X23675250D01*
X23706750Y7350370D01*
X23730370Y7329210D01*
X23750060Y7297460D01*
X23765810Y7260410D01*
X23769740Y7207500D01*
X23765810Y7154580D01*
X23750060Y7117540D01*
X23730370Y7085780D01*
X23706750Y7064620D01*
X23675250Y7048750D01*
X23596520D01*
G01X22029590Y8318750D02*
Y8636250D01*
X22124080D01*
X22155570Y8620370D01*
X22179200Y8583330D01*
X22187070Y8541000D01*
X22179200Y8498670D01*
X22159510Y8466910D01*
X22124080Y8451030D01*
X22029590D01*
G01X22344550Y8636250D02*
Y8318750D01*
X22502030D01*
G01X22639820D02*
X22738250Y8636250D01*
X22836680Y8318750D01*
G01X22801240Y8429870D02*
X22675250D01*
G01X23053210Y8636250D02*
Y8318750D01*
G01X22962660Y8636250D02*
X23143760D01*
G01X23446910Y8318750D02*
X23289430D01*
Y8636250D01*
X23446910D01*
G01X23383920Y8482800D02*
X23289430D01*
G01X23596520Y8318750D02*
Y8636250D01*
X23675250D01*
X23706750Y8620370D01*
X23730370Y8599210D01*
X23750060Y8567460D01*
X23765810Y8530410D01*
X23769740Y8477500D01*
X23765810Y8424580D01*
X23750060Y8387540D01*
X23730370Y8355780D01*
X23706750Y8334620D01*
X23675250Y8318750D01*
X23596520D01*
G01X24509900Y8795000D02*
Y4985000D01*
G01X25179190Y8318750D02*
X25147690Y8324040D01*
X25120140Y8345200D01*
X25096510Y8376960D01*
X25080760Y8414000D01*
X25072890Y8456330D01*
Y8498670D01*
X25080760Y8541000D01*
X25096510Y8578040D01*
X25120140Y8609790D01*
X25147690Y8630960D01*
X25179190Y8636250D01*
X25210680Y8630960D01*
X25238240Y8609790D01*
X25261870Y8578040D01*
X25277620Y8541000D01*
X25285490Y8498670D01*
Y8456330D01*
X25277620Y8414000D01*
X25261870Y8376960D01*
X25238240Y8345200D01*
X25210680Y8324040D01*
X25179190Y8318750D01*
G01X25210680Y8403420D02*
X25257930Y8318750D01*
G01X25494150Y8636250D02*
Y8318750D01*
G01X25403600Y8636250D02*
X25584700D01*
G01X25809110Y8318750D02*
Y8461620D01*
X25730370Y8636250D01*
G01X25887850D02*
X25809110Y8461620D01*
G01X25407540Y5207250D02*
X25431150Y5170200D01*
X25462650Y5149040D01*
X25498090Y5143750D01*
X25529590Y5149040D01*
X25561080Y5175490D01*
X25580760Y5207250D01*
X25584700Y5239000D01*
X25576830Y5276030D01*
X25549270Y5302500D01*
X25521710Y5313090D01*
X25486270D01*
G01X25521710D02*
X25545330Y5328960D01*
X25565020Y5355410D01*
X25572890Y5387160D01*
X25565020Y5418920D01*
X25545330Y5445370D01*
X25509900Y5461250D01*
X25474470Y5455960D01*
X25439030Y5434790D01*
G01X25250060Y5842250D02*
X25273670Y5805200D01*
X25305170Y5784040D01*
X25340610Y5778750D01*
X25372110Y5784040D01*
X25403600Y5810490D01*
X25423280Y5842250D01*
X25427220Y5874000D01*
X25419350Y5911030D01*
X25391790Y5937500D01*
X25364230Y5948090D01*
X25328790D01*
G01X25364230D02*
X25387850Y5963960D01*
X25407540Y5990410D01*
X25415410Y6022160D01*
X25407540Y6053920D01*
X25387850Y6080370D01*
X25352420Y6096250D01*
X25316990Y6090960D01*
X25281550Y6069790D01*
G01X25576820Y6043330D02*
X25600450Y6075080D01*
X25628010Y6090960D01*
X25659510Y6096250D01*
X25698870Y6085670D01*
X25726440Y6059210D01*
X25734310Y6027460D01*
X25730370Y5995700D01*
X25714620Y5969250D01*
X25635880Y5916330D01*
X25600450Y5879290D01*
X25576820Y5826360D01*
X25568950Y5778750D01*
X25734310D01*
G01X25261860Y6678330D02*
X25285490Y6710080D01*
X25313050Y6725960D01*
X25344550Y6731250D01*
X25383910Y6720670D01*
X25411480Y6694210D01*
X25419350Y6662460D01*
X25415410Y6630700D01*
X25399660Y6604250D01*
X25320920Y6551330D01*
X25285490Y6514290D01*
X25261860Y6461360D01*
X25253990Y6413750D01*
X25419350D01*
G01X25651630D02*
X25679190Y6419040D01*
X25710680Y6434910D01*
X25730370Y6461360D01*
X25738240Y6498420D01*
X25730370Y6535450D01*
X25706750Y6567200D01*
X25671310Y6583090D01*
X25631950D01*
X25608320Y6593670D01*
X25588630Y6620120D01*
X25580760Y6657160D01*
X25592580Y6694210D01*
X25620130Y6720670D01*
X25651630Y6731250D01*
X25683120Y6720670D01*
X25710680Y6694210D01*
X25722500Y6657160D01*
X25714620Y6620120D01*
X25694940Y6593670D01*
X25671310Y6583090D01*
X25631950D01*
X25596510Y6567200D01*
X25572890Y6535450D01*
X25565020Y6498420D01*
X25572890Y6461360D01*
X25592580Y6434910D01*
X25624070Y6419040D01*
X25651630Y6413750D01*
G01X25336670Y7683750D02*
Y8001250D01*
X25289430Y7937750D01*
G01Y7683750D02*
X25383910D01*
G01X25584700Y7720780D02*
X25612260Y7694330D01*
X25643750Y7683750D01*
X25675250Y7694330D01*
X25702810Y7726070D01*
X25722500Y7773710D01*
X25730370Y7821330D01*
Y7879540D01*
X25722500Y7927160D01*
X25702810Y7969500D01*
X25679190Y7990670D01*
X25651630Y8001250D01*
X25620130Y7990670D01*
X25596510Y7969500D01*
X25580760Y7937750D01*
X25572890Y7895410D01*
X25580760Y7858380D01*
X25600450Y7821330D01*
X25624070Y7800160D01*
X25651630Y7794870D01*
X25683120Y7805450D01*
X25706750Y7831910D01*
X25730370Y7879540D01*
G01X25419340Y7313330D02*
X25442970Y7345080D01*
X25470530Y7360960D01*
X25502030Y7366250D01*
X25541390Y7355670D01*
X25568960Y7329210D01*
X25576830Y7297460D01*
X25572890Y7265700D01*
X25557140Y7239250D01*
X25478400Y7186330D01*
X25442970Y7149290D01*
X25419340Y7096360D01*
X25411470Y7048750D01*
X25576830D01*
M02*
