G04 ================== begin FILE IDENTIFICATION RECORD ==================*
G04 Layout Name:  C:/Users/kjwoo_/Desktop/project/allegro/PROJECT1.brd*
G04 Film Name:    Soldermask_Top*
G04 File Format:  Gerber RS274X*
G04 File Origin:  Cadence Allegro 17.2-S007*
G04 Origin Date:  Wed Oct 09 16:55:21 2019*
G04 *
G04 Layer:  VIA CLASS/SOLDERMASK_TOP*
G04 Layer:  PIN/SOLDERMASK_TOP*
G04 *
G04 Offset:    (0.0000 0.0000)*
G04 Mirror:    No*
G04 Mode:      Positive*
G04 Rotation:  0*
G04 FullContactRelief:  No*
G04 UndefLineWidth:     0.0000*
G04 ================== end FILE IDENTIFICATION RECORD ====================*
%FSLAX55Y55*MOMM*%
%IR0*IPPOS*OFA0.00000B0.00000*MIA0B0*SFA1.00000B1.00000*%
%ADD19R,2.032X1.524*%
%ADD20R,1.3462X1.0414*%
%ADD17C,1.524*%
%ADD16C,1.1176*%
%ADD15R,1.27X1.27*%
%ADD13R,1.524X1.524*%
%ADD14C,4.826*%
%ADD11R,6.604X2.286*%
%ADD18C,1.778*%
%ADD10R,2.667X4.191*%
%ADD12R,6.604X6.477*%
%ADD21R,1.778X1.778*%
%LPD*%
G75*
G54D10*
X5399990Y5588000D03*
X6030010D03*
X5653990Y8318500D03*
X6284010D03*
G54D11*
X5584650Y6080890D03*
Y6540860D03*
X6226350Y7698610D03*
Y7238640D03*
G54D20*
X10160000Y8793510D03*
Y8478490D03*
G54D21*
X11811000Y6731000D03*
G54D12*
X5555740Y7472170D03*
X6255260Y6307330D03*
G54D13*
X5969000Y6921500D03*
X6299200D03*
X6845300Y8445500D03*
X6881000Y10085000D03*
X7175500Y8445500D03*
X7795000Y5255000D03*
X10139000D03*
X11351000Y10085000D03*
G54D14*
X6319010Y8917990D03*
X5969000Y9398000D03*
X6569000D03*
G54D15*
X6413500Y5270500D03*
Y5483860D03*
X6667500Y7937500D03*
X6880860D03*
X9842500Y5715000D03*
X9600000Y7100000D03*
X9813360D03*
X9207500Y7874000D03*
X9420860D03*
X9842500Y8509000D03*
Y8722360D03*
X10055860Y5715000D03*
X10300000Y7100000D03*
X10086640D03*
X10223500Y7874000D03*
X10010140D03*
X11747500Y8699500D03*
Y8486140D03*
G54D16*
X6540500Y6921500D03*
X6921500Y5651500D03*
X7493000Y6477000D03*
X7366000Y6540500D03*
X7620000Y6413500D03*
X6921500Y7493000D03*
X7175500Y8791500D03*
X8255000Y6032500D03*
X8128000Y6096000D03*
X8191500Y6731000D03*
X7747000Y6286500D03*
X8001000Y6159500D03*
X7874000Y6223000D03*
X9271000Y5969000D03*
X9525000D03*
X9573000Y10085000D03*
X11811000Y6731000D03*
X11557000Y6985000D03*
Y8572500D03*
G54D17*
X7643000Y10085000D03*
X7389000D03*
X7135000D03*
X8303000Y5255000D03*
X8049000D03*
X8405000Y10085000D03*
X8151000D03*
X7897000D03*
X9065000Y5255000D03*
X8811000D03*
X8557000D03*
X9167000Y10085000D03*
X8913000D03*
X8659000D03*
X9573000Y5255000D03*
X9319000D03*
X9573000Y10085000D03*
X9827000D03*
X10647000Y5255000D03*
X10393000D03*
X10081000Y10085000D03*
X10335000D03*
X10589000D03*
X11409000Y5255000D03*
X11155000D03*
X10901000D03*
X10843000Y10085000D03*
X11097000D03*
G54D18*
X9017000Y5969000D03*
X8763000D03*
X8509000D03*
Y6731000D03*
X8763000D03*
X9017000D03*
X9779000Y5969000D03*
X9525000D03*
X9271000D03*
Y6731000D03*
X9525000D03*
X9779000D03*
X9456010Y7500000D03*
X9943990D03*
X10541000Y5969000D03*
X10287000D03*
X10033000D03*
Y6731000D03*
X10287000D03*
X10541000D03*
X11303000Y5969000D03*
X11049000D03*
X10795000D03*
Y6731000D03*
X11049000D03*
X11303000D03*
X11811000Y5969000D03*
X11557000D03*
Y6731000D03*
G54D19*
X10497010Y8347510D03*
Y8797490D03*
X11346990Y8347510D03*
Y8797490D03*
M02*
