G04 ================== begin FILE IDENTIFICATION RECORD ==================*
G04 Layout Name:  C:/Users/kjwoo_/Desktop/project/allegro/PROJECT1.brd*
G04 Film Name:    Soldermask_Bottom*
G04 File Format:  Gerber RS274X*
G04 File Origin:  Cadence Allegro 17.2-S007*
G04 Origin Date:  Wed Oct 09 16:55:21 2019*
G04 *
G04 Layer:  VIA CLASS/SOLDERMASK_BOTTOM*
G04 Layer:  PIN/SOLDERMASK_BOTTOM*
G04 *
G04 Offset:    (0.0000 0.0000)*
G04 Mirror:    No*
G04 Mode:      Positive*
G04 Rotation:  0*
G04 FullContactRelief:  No*
G04 UndefLineWidth:     0.0000*
G04 ================== end FILE IDENTIFICATION RECORD ====================*
%FSLAX55Y55*MOMM*%
%IR0*IPPOS*OFA0.00000B0.00000*MIA0B0*SFA1.00000B1.00000*%
%ADD13C,1.524*%
%ADD11C,1.1176*%
%ADD12R,1.524X1.524*%
%ADD10C,4.826*%
%ADD14C,1.778*%
%ADD15R,1.778X1.778*%
%LPD*%
G75*
G54D10*
X6319010Y8917990D03*
X5969000Y9398000D03*
X6569000D03*
G54D11*
X6540500Y6921500D03*
X6921500Y5651500D03*
X7493000Y6477000D03*
X7366000Y6540500D03*
X7620000Y6413500D03*
X6921500Y7493000D03*
X7175500Y8791500D03*
X8255000Y6032500D03*
X8128000Y6096000D03*
X8191500Y6731000D03*
X7747000Y6286500D03*
X8001000Y6159500D03*
X7874000Y6223000D03*
X9271000Y5969000D03*
X9525000D03*
X9573000Y10085000D03*
X11811000Y6731000D03*
X11557000Y6985000D03*
Y8572500D03*
G54D12*
X6881000Y10085000D03*
X7795000Y5255000D03*
X10139000D03*
X11351000Y10085000D03*
G54D13*
X7643000D03*
X7389000D03*
X7135000D03*
X8303000Y5255000D03*
X8049000D03*
X8405000Y10085000D03*
X8151000D03*
X7897000D03*
X9065000Y5255000D03*
X8811000D03*
X8557000D03*
X9167000Y10085000D03*
X8913000D03*
X8659000D03*
X9573000Y5255000D03*
X9319000D03*
X9573000Y10085000D03*
X9827000D03*
X10647000Y5255000D03*
X10393000D03*
X10081000Y10085000D03*
X10335000D03*
X10589000D03*
X11409000Y5255000D03*
X11155000D03*
X10901000D03*
X10843000Y10085000D03*
X11097000D03*
G54D14*
X9017000Y5969000D03*
X8763000D03*
X8509000D03*
Y6731000D03*
X8763000D03*
X9017000D03*
X9779000Y5969000D03*
X9525000D03*
X9271000D03*
Y6731000D03*
X9525000D03*
X9779000D03*
X9456010Y7500000D03*
X9943990D03*
X10541000Y5969000D03*
X10287000D03*
X10033000D03*
Y6731000D03*
X10287000D03*
X10541000D03*
X11303000Y5969000D03*
X11049000D03*
X10795000D03*
Y6731000D03*
X11049000D03*
X11303000D03*
X11811000Y5969000D03*
X11557000D03*
Y6731000D03*
G54D15*
X11811000D03*
M02*
